<svg xmlns="http://www.w3.org/2000/svg" xmlns:xlink="http://www.w3.org/1999/xlink" viewBox="0 0 64 64" version="1.1" class="custom-svg">
<g id="surface1">
<path style=" " d="M 13.65625 4 C 12.320313 4 11.066406 4.519531 10.121094 5.464844 L 1.464844 14.121094 C 0.519531 15.066406 0 16.320313 0 17.65625 L 0 57 C 0 58.652344 1.347656 60 3 60 L 43 60 C 44.652344 60 46 58.652344 46 57 L 46 54 L 60.949219 54 C 62.601563 54 63.949219 52.652344 63.949219 51 L 63.949219 17 C 63.949219 15.347656 62.601563 14 60.949219 14 L 46 14 L 46 7 C 46 5.347656 44.652344 4 43 4 Z M 14 6 L 43 6 C 43.550781 6 44 6.449219 44 7 L 44 14 L 30.949219 14 C 29.296875 14 27.949219 15.347656 27.949219 17 L 27.949219 51 C 27.949219 52.652344 29.296875 54 30.949219 54 L 44 54 L 44 57 C 44 57.550781 43.550781 58 43 58 L 3 58 C 2.449219 58 2 57.550781 2 57 L 2 18 L 11 18 C 12.652344 18 14 16.652344 14 15 Z M 12 6.5 L 12 15 C 12 15.550781 11.550781 16 11 16 L 2.5 16 C 2.605469 15.835938 2.734375 15.679688 2.878906 15.535156 L 11.535156 6.878906 C 11.679688 6.738281 11.835938 6.613281 12 6.5 Z M 30.949219 16 L 60.949219 16 C 61.5 16 61.949219 16.449219 61.949219 17 L 61.949219 27.949219 L 29.949219 27.949219 L 29.949219 17 C 29.949219 16.449219 30.398438 16 30.949219 16 Z M 15 20 C 10.039063 20 6 24.039063 6 29 C 6 33.960938 10.039063 38 15 38 C 19.960938 38 24 33.960938 24 29 C 24 24.039063 19.960938 20 15 20 Z M 14 22.078125 L 14 28.832031 C 14 29.03125 14.070313 29.203125 14.171875 29.359375 C 14.21875 29.492188 14.289063 29.621094 14.394531 29.730469 L 19.234375 34.5625 C 18.054688 35.460938 16.589844 36 15 36 C 11.140625 36 8 32.859375 8 29 C 8 25.480469 10.613281 22.566406 14 22.078125 Z M 16 22.078125 C 19.386719 22.566406 22 25.480469 22 29 C 22 30.550781 21.488281 31.976563 20.636719 33.136719 L 16 28.503906 Z M 29.949219 29.949219 L 61.949219 29.949219 L 61.949219 51 C 61.949219 51.550781 61.5 52 60.949219 52 L 30.949219 52 C 30.398438 52 29.949219 51.550781 29.949219 51 Z M 34 31.949219 C 32.898438 31.949219 32 32.847656 32 33.949219 L 32 37.949219 C 32 39.050781 32.898438 39.949219 34 39.949219 L 38 39.949219 C 39.101563 39.949219 40 39.050781 40 37.949219 L 40 33.949219 C 40 32.847656 39.101563 31.949219 38 31.949219 Z M 44 31.949219 C 42.898438 31.949219 42 32.847656 42 33.949219 L 42 37.949219 C 42 39.050781 42.898438 39.949219 44 39.949219 L 48 39.949219 C 49.101563 39.949219 50 39.050781 50 37.949219 L 50 33.949219 C 50 32.847656 49.101563 31.949219 48 31.949219 Z M 54 31.949219 C 52.898438 31.949219 52 32.847656 52 33.949219 L 52 47.949219 C 52 49.050781 52.898438 49.949219 54 49.949219 L 58 49.949219 C 59.101563 49.949219 60 49.050781 60 47.949219 L 60 33.949219 C 60 32.847656 59.101563 31.949219 58 31.949219 Z M 34 33.949219 L 38 33.949219 L 38 37.949219 L 34 37.949219 Z M 44 33.949219 L 48 33.949219 L 48 37.949219 L 44 37.949219 Z M 54 33.949219 L 58 33.949219 L 58 47.949219 L 54 47.949219 Z M 34 41.949219 C 32.898438 41.949219 32 42.847656 32 43.949219 L 32 47.949219 C 32 49.050781 32.898438 49.949219 34 49.949219 L 38 49.949219 C 39.101563 49.949219 40 49.050781 40 47.949219 L 40 43.949219 C 40 42.847656 39.101563 41.949219 38 41.949219 Z M 44 41.949219 C 42.898438 41.949219 42 42.847656 42 43.949219 L 42 47.949219 C 42 49.050781 42.898438 49.949219 44 49.949219 L 48 49.949219 C 49.101563 49.949219 50 49.050781 50 47.949219 L 50 43.949219 C 50 42.847656 49.101563 41.949219 48 41.949219 Z M 13 42 C 12.449219 42 12 42.449219 12 43 L 12 45 L 9 45 C 8.449219 45 8 45.449219 8 46 L 8 51.949219 L 4.949219 51.949219 C 4.398438 51.949219 3.949219 52.398438 3.949219 52.949219 C 3.949219 53.5 4.398438 53.949219 4.949219 53.949219 L 24.949219 53.949219 C 25.5 53.949219 25.949219 53.5 25.949219 52.949219 C 25.949219 52.398438 25.5 51.949219 24.949219 51.949219 L 22 51.949219 L 22 49 C 22 48.449219 21.550781 48 21 48 L 18 48 L 18 43 C 18 42.449219 17.550781 42 17 42 Z M 34 43.949219 L 38 43.949219 L 38 47.949219 L 34 47.949219 Z M 44 43.949219 L 48 43.949219 L 48 47.949219 L 44 47.949219 Z M 14 44 L 16 44 L 16 51.949219 L 14 51.949219 Z M 10 47 L 12 47 L 12 51.949219 L 10 51.949219 Z M 18 50 L 20 50 L 20 51.949219 L 18 51.949219 Z "></path>
</g>
</svg>
