<svg xmlns="http://www.w3.org/2000/svg" xmlns:xlink="http://www.w3.org/1999/xlink" viewBox="0 0 64 64" version="1.1" class="custom-svg">
<g id="surface1">
<path style=" " d="M 32 6 C 17.421875 6 6 10.832031 6 17 L 6 47 C 6 53.167969 17.421875 58 32 58 C 46.578125 58 58 53.167969 58 47 L 58 17 C 58 10.832031 46.578125 6 32 6 Z M 32 8 C 46.355469 8 56 12.652344 56 17 C 56 21.347656 46.355469 26 32 26 C 17.644531 26 8 21.347656 8 17 C 8 12.652344 17.644531 8 32 8 Z M 32 10 C 27.578125 10 23.410156 10.460938 19.9375 11.332031 C 19.402344 11.464844 19.078125 12.011719 19.214844 12.546875 C 19.328125 13 19.734375 13.300781 20.183594 13.300781 C 20.261719 13.300781 20.34375 13.292969 20.425781 13.269531 C 23.691406 12.453125 27.800781 12 32 12 C 33.328125 12 34.652344 12.042969 35.9375 12.128906 C 36.484375 12.183594 36.964844 11.753906 37 11.203125 C 37.039063 10.648438 36.621094 10.171875 36.070313 10.136719 C 34.742188 10.046875 33.371094 10 32 10 Z M 40.769531 10.664063 C 40.222656 10.574219 39.710938 10.945313 39.625 11.492188 C 39.535156 12.039063 39.90625 12.550781 40.453125 12.640625 C 41.554688 12.816406 42.601563 13.027344 43.574219 13.269531 C 43.65625 13.292969 43.738281 13.300781 43.816406 13.300781 C 44.265625 13.300781 44.671875 13 44.785156 12.546875 C 44.921875 12.011719 44.597656 11.464844 44.0625 11.332031 C 43.035156 11.074219 41.929688 10.847656 40.769531 10.664063 Z M 8 21.308594 C 11.886719 25.277344 21.054688 28 32 28 C 42.945313 28 52.113281 25.277344 56 21.308594 L 56 27 C 56 31.347656 46.355469 36 32 36 C 17.644531 36 8 31.347656 8 27 Z M 8 31.308594 C 11.886719 35.277344 21.054688 38 32 38 C 42.945313 38 52.113281 35.277344 56 31.308594 L 56 37 C 56 38.730469 54.46875 40.519531 51.683594 42.035156 C 51.199219 42.300781 51.019531 42.90625 51.28125 43.390625 C 51.464844 43.726563 51.808594 43.914063 52.160156 43.914063 C 52.324219 43.914063 52.488281 43.875 52.640625 43.792969 C 54.027344 43.039063 55.144531 42.210938 56 41.332031 L 56 47 C 56 51.347656 46.359375 56 32 56 C 17.644531 56 8 51.347656 8 47 L 8 41.285156 C 11.214844 44.589844 18.078125 47.070313 26.855469 47.792969 C 26.882813 47.792969 26.914063 47.796875 26.9375 47.796875 C 27.457031 47.796875 27.890625 47.398438 27.9375 46.875 C 27.980469 46.328125 27.570313 45.84375 27.019531 45.796875 C 16.175781 44.90625 8 41.125 8 37 Z M 47 42 C 46.445313 42 46 42.449219 46 43 L 46 45 C 46 45.550781 46.445313 46 47 46 C 47.554688 46 48 45.550781 48 45 L 48 43 C 48 42.449219 47.554688 42 47 42 Z M 42 43.097656 C 41.445313 43.097656 41 43.546875 41 44.097656 L 41 46.097656 C 41 46.652344 41.445313 47.097656 42 47.097656 C 42.554688 47.097656 43 46.652344 43 46.097656 L 43 44.097656 C 43 43.546875 42.554688 43.097656 42 43.097656 Z M 37 43.800781 C 36.445313 43.800781 36 44.25 36 44.800781 L 36 46.800781 C 36 47.351563 36.445313 47.800781 37 47.800781 C 37.554688 47.800781 38 47.351563 38 46.800781 L 38 44.800781 C 38 44.25 37.554688 43.800781 37 43.800781 Z M 32 44 C 31.445313 44 31 44.449219 31 45 L 31 47 C 31 47.550781 31.445313 48 32 48 C 32.554688 48 33 47.550781 33 47 L 33 45 C 33 44.449219 32.554688 44 32 44 Z "></path>
</g>
</svg>
