<svg xmlns="http://www.w3.org/2000/svg" xmlns:xlink="http://www.w3.org/1999/xlink" viewBox="0 0 64 64" version="1.1" class="custom-svg">
    <path d="M 8 7 C 6.732 7.004 5.6026875 7.804 5.1796875 9 L 4 9 C 2.343 9 1 10.343 1 12 L 1 52 C 1 53.657 2.343 55 4 55 L 25.220703 55 C 25.816703 55.004 26.330938 55.419 26.460938 56 C 26.917938 57.769 28.512844 59.003 30.339844 59 L 33.660156 59 C 35.487156 59.003 37.082063 57.769 37.539062 56 C 37.669063 55.419 38.183297 55.004 38.779297 55 L 60 55 C 61.657 55 63 53.657 63 52 L 63 12 C 63 10.343 61.657 9 60 9 L 58.820312 9 C 58.397312 7.804 57.268 7.004 56 7 L 36 7 C 34.426 7 32.944 7.741 32 9 C 31.056 7.741 29.574 7 28 7 L 8 7 z M 8 9 L 28 9 C 29.657 9 31 10.343 31 12 L 31 38 C 31 38.552 31.448 39 32 39 C 32.552 39 33 38.552 33 38 L 33 12 C 33 10.343 34.343 9 36 9 L 56 9 C 56.552 9 57 9.448 57 10 L 57 48 C 57 48.552 56.552 49 56 49 L 36 49 C 34.426 49 32.944 49.741 32 51 C 31.056 49.741 29.574 49 28 49 L 8 49 C 7.448 49 7 48.552 7 48 L 7 10 C 7 9.448 7.448 9 8 9 z M 4 11 L 5 11 L 5 48 C 5 49.657 6.343 51 8 51 L 28 51 C 29.657 51 31 52.343 31 54 C 31 54.552 31.448 55 32 55 C 32.552 55 33 54.552 33 54 C 33 52.343 34.343 51 36 51 L 56 51 C 57.657 51 59 49.657 59 48 L 59 11 L 60 11 C 60.552 11 61 11.448 61 12 L 61 52 C 61 52.552 60.552 53 60 53 L 38.779297 53 C 37.273297 53.002 35.962609 54.028234 35.599609 55.490234 C 35.375609 56.378234 34.576156 57 33.660156 57 L 30.339844 57 C 29.420844 56.999 28.621391 56.372469 28.400391 55.480469 C 28.037391 54.020469 26.724703 52.997 25.220703 53 L 4 53 C 3.448 53 3 52.552 3 52 L 3 12 C 3 11.448 3.448 11 4 11 z M 11 13 C 10.448 13 10 13.448 10 14 L 10 16 C 10 16.552 10.448 17 11 17 C 11.552 17 12 16.552 12 16 L 12 14 C 12 13.448 11.552 13 11 13 z M 16 13 C 15.448 13 15 13.448 15 14 L 15 16 C 15 16.552 15.448 17 16 17 C 16.552 17 17 16.552 17 16 L 17 14 C 17 13.448 16.552 13 16 13 z M 21 13 C 20.448 13 20 13.448 20 14 L 20 16 C 20 16.552 20.448 17 21 17 C 21.552 17 22 16.552 22 16 L 22 14 C 22 13.448 21.552 13 21 13 z M 26 13 C 25.448 13 25 13.448 25 14 L 25 16 C 25 16.552 25.448 17 26 17 C 26.552 17 27 16.552 27 16 L 27 14 C 27 13.448 26.552 13 26 13 z M 38 13 C 37.448 13 37 13.448 37 14 L 37 16 C 37 16.552 37.448 17 38 17 C 38.552 17 39 16.552 39 16 L 39 14 C 39 13.448 38.552 13 38 13 z M 43 13 C 42.448 13 42 13.448 42 14 L 42 16 C 42 16.552 42.448 17 43 17 C 43.552 17 44 16.552 44 16 L 44 14 C 44 13.448 43.552 13 43 13 z M 48 13 C 47.448 13 47 13.448 47 14 L 47 16 C 47 16.552 47.448 17 48 17 C 48.552 17 49 16.552 49 16 L 49 14 C 49 13.448 48.552 13 48 13 z M 53 13 C 52.448 13 52 13.448 52 14 L 52 16 C 52 16.552 52.448 17 53 17 C 53.552 17 54 16.552 54 16 L 54 14 C 54 13.448 53.552 13 53 13 z M 46.21875 19.501953 C 45.78775 19.501953 45.4375 19.85025 45.4375 20.28125 L 45.4375 22.626953 L 44.65625 22.626953 C 42.49925 22.626953 40.751953 24.37425 40.751953 26.53125 L 40.751953 28.09375 C 40.751953 30.25075 42.49925 32 44.65625 32 L 47.78125 32 C 49.07525 32 50.126953 33.04875 50.126953 34.34375 L 50.126953 35.90625 C 50.126953 37.20025 49.07625 38.25 47.78125 38.25 L 47 38.25 L 47 33.5625 C 47 33.1315 46.64975 32.78125 46.21875 32.78125 C 45.78775 32.78125 45.4375 33.1315 45.4375 33.5625 L 45.4375 38.25 L 44.65625 38.25 C 43.36225 38.25 42.3125 37.20125 42.3125 35.90625 C 42.3125 35.47525 41.96225 35.125 41.53125 35.125 C 41.10025 35.125 40.751953 35.47525 40.751953 35.90625 C 40.751953 38.06325 42.49925 39.8125 44.65625 39.8125 L 45.4375 39.8125 L 45.4375 42.15625 C 45.4375 42.58725 45.78775 42.9375 46.21875 42.9375 C 46.64975 42.9375 47 42.58825 47 42.15625 L 47 39.8125 L 47.78125 39.8125 C 49.93825 39.8125 51.6875 38.06325 51.6875 35.90625 L 51.6875 34.34375 C 51.6875 32.18675 49.93825 30.4375 47.78125 30.4375 L 47 30.4375 L 47 25.75 C 47 25.319 46.64975 24.96875 46.21875 24.96875 C 45.78775 24.96875 45.4375 25.319 45.4375 25.75 L 45.4375 30.4375 L 44.65625 30.4375 C 43.36225 30.4375 42.3125 29.38875 42.3125 28.09375 L 42.3125 26.53125 C 42.3115 25.23625 43.36225 24.1875 44.65625 24.1875 L 47.78125 24.1875 C 49.07525 24.1875 50.125 25.23625 50.125 26.53125 C 50.125 26.96225 50.47525 27.3125 50.90625 27.3125 C 51.33725 27.3125 51.6875 26.96225 51.6875 26.53125 C 51.6875 24.37425 49.93825 22.626953 47.78125 22.626953 L 47 22.626953 L 47 20.28125 C 47 19.85025 46.64975 19.501953 46.21875 19.501953 z M 12 21 C 11.448 21 11 21.448 11 22 C 11 22.552 11.448 23 12 23 L 16 23 C 16.552 23 17 22.552 17 22 C 17 21.448 16.552 21 16 21 L 12 21 z M 20 21 C 19.448 21 19 21.448 19 22 C 19 22.552 19.448 23 20 23 L 27 23 C 27.552 23 28 22.552 28 22 C 28 21.448 27.552 21 27 21 L 20 21 z M 12 25 C 11.448 25 11 25.448 11 26 C 11 26.552 11.448 27 12 27 L 16 27 C 16.552 27 17 26.552 17 26 C 17 25.448 16.552 25 16 25 L 12 25 z M 20 25 C 19.448 25 19 25.448 19 26 C 19 26.552 19.448 27 20 27 L 24 27 C 24.552 27 25 26.552 25 26 C 25 25.448 24.552 25 24 25 L 20 25 z M 12 29 C 11.448 29 11 29.448 11 30 C 11 30.552 11.448 31 12 31 L 16 31 C 16.552 31 17 30.552 17 30 C 17 29.448 16.552 29 16 29 L 12 29 z M 20 29 C 19.448 29 19 29.448 19 30 C 19 30.552 19.448 31 20 31 L 27 31 C 27.552 31 28 30.552 28 30 C 28 29.448 27.552 29 27 29 L 20 29 z M 20 35 C 19.448 35 19 35.448 19 36 C 19 36.552 19.448 37 20 37 L 27 37 C 27.552 37 28 36.552 28 36 C 28 35.448 27.552 35 27 35 L 20 35 z M 12 41 C 11.448 41 11 41.448 11 42 C 11 42.552 11.448 43 12 43 L 16 43 C 16.552 43 17 42.552 17 42 C 17 41.448 16.552 41 16 41 L 12 41 z M 20 41 C 19.448 41 19 41.448 19 42 C 19 42.552 19.448 43 20 43 L 27 43 C 27.552 43 28 42.552 28 42 C 28 41.448 27.552 41 27 41 L 20 41 z M 32 41 C 31.448 41 31 41.448 31 42 L 31 46 C 31 46.552 31.448 47 32 47 C 32.552 47 33 46.552 33 46 L 33 42 C 33 41.448 32.552 41 32 41 z"></path>
</svg>
