<svg xmlns="http://www.w3.org/2000/svg" xmlns:xlink="http://www.w3.org/1999/xlink" viewBox="0 0 64 64" version="1.1" class="custom-svg">
    <path class="svg-color1" d="M 53.023438 1 C 52.754438 0.986 52.485969 1.0999687 52.292969 1.2929688 L 49.292969 4.2929688 C 48.913969 4.6709688 48.900672 5.2807813 49.263672 5.6757812 L 53.228516 9.9960938 L 32 10 C 19.869 10 10 19.869 10 32 C 10 34.458 10.410203 36.820297 11.158203 39.029297 C 11.097203 39.020297 11.040563 38.995 10.976562 39 C 10.703563 39.006 10.444766 39.124172 10.259766 39.326172 L 0.25976562 50.326172 C -0.087234375 50.708172 -0.087234375 51.291828 0.25976562 51.673828 L 10.259766 62.673828 C 10.444766 62.875828 10.702563 62.993 10.976562 63 L 11 63 C 11.265 63 11.520031 62.895031 11.707031 62.707031 L 14.707031 59.707031 C 15.086031 59.328031 15.099328 58.718219 14.736328 58.324219 L 10.769531 54 L 32 54 C 44.131 54 54 44.131 54 32 C 54 29.541 53.588797 27.17875 52.841797 24.96875 C 52.895797 24.97775 52.945 25 53 25 L 53.023438 25 C 53.296438 24.994 53.555234 24.875828 53.740234 24.673828 L 63.738281 13.673828 C 64.085281 13.291828 64.085281 12.708172 63.738281 12.326172 L 53.740234 1.3261719 C 53.556234 1.1241719 53.297438 1.007 53.023438 1 z M 52.966797 3.4492188 L 61.646484 13 L 52.964844 22.550781 L 51.384766 20.970703 L 56.238281 15.679688 C 56.600281 15.284688 56.586031 14.670969 56.207031 14.292969 C 56.020031 14.104969 55.766 14 55.5 14 L 44.626953 14 C 43.534953 13.232 42.370484 12.560047 41.146484 11.998047 L 55.503906 11.996094 C 55.899906 11.996094 56.258969 11.762437 56.417969 11.398438 C 56.577969 11.035438 56.507281 10.613312 56.238281 10.320312 L 51.384766 5.0292969 L 52.966797 3.4492188 z M 32 12 C 43.028 12 52 20.972 52 32 C 52 43.028 43.028 52 32 52 C 20.972 52 12 43.028 12 32 C 12 20.972 20.972 12 32 12 z M 32.84375 15.050781 C 31.173282 14.970191 29.463953 15.136937 27.759766 15.578125 C 18.670766 17.931125 13.2095 27.207875 15.5625 36.296875 C 17.1335 42.364875 21.916813 47.075688 28.007812 48.554688 L 28.246094 48.554688 C 28.798094 48.618688 29.298328 48.221922 29.361328 47.669922 C 29.425328 47.117922 29.028563 46.618687 28.476562 46.554688 L 28.476562 46.605469 C 20.425562 44.652469 15.4845 36.541234 17.4375 28.490234 C 19.3905 20.439234 27.499781 15.497172 35.550781 17.451172 C 40.928781 18.756172 45.152109 22.917391 46.537109 28.275391 C 46.675109 28.811391 47.221812 29.132141 47.757812 28.994141 C 48.293813 28.856141 48.614562 28.311391 48.476562 27.775391 C 46.56475 20.389766 40.082446 15.400007 32.84375 15.050781 z M 47.076172 16 L 53.230469 16 L 50.058594 19.457031 C 49.185594 18.203031 48.185172 17.045 47.076172 16 z M 32.007812 22.025391 C 31.455813 22.025391 31.007812 22.473391 31.007812 23.025391 L 31.007812 24.025391 C 29.350812 24.025391 28.007812 25.368391 28.007812 27.025391 L 28.007812 30.025391 C 28.007812 31.682391 29.350812 33.025391 31.007812 33.025391 L 33.007812 33.025391 C 33.559812 33.025391 34.007812 33.473391 34.007812 34.025391 L 34.007812 37.025391 C 34.007812 37.577391 33.559812 38.025391 33.007812 38.025391 L 31.007812 38.025391 C 30.455813 38.025391 30.007812 37.577391 30.007812 37.025391 C 30.007812 36.473391 29.559812 36.025391 29.007812 36.025391 C 28.455813 36.025391 28.007812 36.473391 28.007812 37.025391 C 28.007812 38.682391 29.350812 40.025391 31.007812 40.025391 L 31.007812 41.025391 C 31.007812 41.577391 31.455813 42.025391 32.007812 42.025391 C 32.559812 42.025391 33.007812 41.577391 33.007812 41.025391 L 33.007812 40.025391 C 34.664812 40.025391 36.007812 38.682391 36.007812 37.025391 L 36.007812 34.025391 C 36.007812 32.368391 34.664812 31.025391 33.007812 31.025391 L 31.007812 31.025391 C 30.455813 31.025391 30.007812 30.577391 30.007812 30.025391 L 30.007812 27.025391 C 30.007812 26.472391 30.454813 26.025391 31.007812 26.025391 L 33.007812 26.025391 C 33.559812 26.025391 34.007812 26.473391 34.007812 27.025391 C 34.007812 27.577391 34.455813 28.025391 35.007812 28.025391 C 35.559812 28.025391 36.007812 27.577391 36.007812 27.025391 C 36.007812 25.368391 34.664812 24.025391 33.007812 24.025391 L 33.007812 23.025391 C 33.007812 22.473391 32.559812 22.025391 32.007812 22.025391 z M 46.007812 33.025391 C 45.455813 33.025391 
45.007813 33.473391 45.007812 34.025391 C 45.007812 34.577391 45.455813 35.025391 46.007812 35.025391 L 48.007812 35.025391 C 48.559812 35.025391 49.007812 34.577391 49.007812 34.025391 C 49.007812 33.473391 48.559812 33.025391 48.007812 33.025391 L 46.007812 33.025391 z M 45.060547 37.701172 C 44.671203 37.685656 44.292234 37.898438 44.115234 38.273438 C 43.880234 38.773438 44.095703 39.369469 44.595703 39.605469 C 44.618703 39.616469 44.642016 39.625766 44.666016 39.634766 L 46.505859 40.414062 C 46.628859 40.466062 46.762484 40.494141 46.896484 40.494141 C 47.448484 40.493141 47.895531 40.044187 47.894531 39.492188 C 47.894531 39.092188 47.655109 38.731219 47.287109 38.574219 L 45.447266 37.794922 C 45.322266 37.736172 45.190328 37.706344 45.060547 37.701172 z M 11.035156 41.449219 L 12.615234 43.029297 L 7.7597656 48.320312 C 7.3977656 48.715313 7.4139688 49.328031 7.7929688 49.707031 C 7.9799688 49.895031 8.2320469 50 8.4980469 50 L 19.373047 50 C 20.464047 50.768 21.627562 51.438 22.851562 52 L 8.4980469 52 C 8.2320469 52 7.9770625 52.108875 7.7890625 52.296875 C 7.4100625 52.675875 7.3967656 53.285687 7.7597656 53.679688 L 12.615234 58.970703 L 11.033203 60.550781 L 2.3515625 51 L 11.035156 41.449219 z M 42.46875 41.568359 C 42.2135 41.588109 41.966609 41.704563 41.787109 41.914062 C 41.466109 42.288063 41.466109 42.840844 41.787109 43.214844 L 43.197266 44.625 C 43.616266 44.984 44.248422 44.934625 44.607422 44.515625 C 44.928422 44.141625 44.928422 43.588844 44.607422 43.214844 L 43.197266 41.804688 C 42.987766 41.625187 42.724 41.548609 42.46875 41.568359 z M 38.478516 44.207031 C 38.348703 44.213078 38.21825 44.244937 38.09375 44.304688 C 37.63775 44.522688 37.415172 45.046391 37.576172 45.525391 L 38.326172 47.375 C 38.478172 47.756 38.847813 48.005859 39.257812 48.005859 C 39.809812 48.006859 40.256813 47.557859 40.257812 47.005859 C 40.257812 46.878859 40.2345 46.752766 40.1875 46.634766 L 39.427734 44.775391 C 39.249234 44.401891 38.867953 44.188891 38.478516 44.207031 z M 13.941406 44.542969 C 14.815406 45.796969 15.814828 46.955 16.923828 48 L 10.769531 48 L 13.941406 44.542969 z M 34.007812 45.025391 C 33.455813 45.025391 33.007812 45.473391 33.007812 46.025391 L 33.007812 48.025391 C 33.007812 48.577391 33.455813 49.025391 34.007812 49.025391 C 34.559812 49.025391 35.007812 48.577391 35.007812 48.025391 L 35.007812 46.025391 C 35.007812 45.472391 34.559812 45.025391 34.007812 45.025391 z"></path>
</svg> 
