<svg class="custom-svg" width="42" height="42" version="1.1" viewBox="0 0 42 42" xmlns="http://www.w3.org/2000/svg">
 <g transform="translate(-4,-4)">
  <path d="m5 4-0.8125 0.40625-0.15625 0.875 0.625 0.65625 0.34375 0.0625h2l0.8125-0.40625 0.15625-0.875-0.625-0.65625-0.34375-0.0625zm6 0-0.8125 0.40625-0.15625 0.875 0.625 0.65625 0.34375 0.0625h2l0.8125-0.40625 0.15625-0.875-0.625-0.65625-0.34375-0.0625zm6 0-0.8125 0.40625-0.15625 0.875 0.625 0.65625 0.34375 0.0625h2l0.8125-0.40625 0.15625-0.875-0.625-0.65625-0.34375-0.0625zm6 0-0.8125 0.40625-0.15625 0.875 0.625 0.65625 0.34375 0.0625h2l0.8125-0.40625 0.15625-0.875-0.625-0.65625-0.34375-0.0625zm6 0-0.8125 0.40625-0.15625 0.875 0.625 0.65625 0.34375 0.0625h2l0.8125-0.40625 0.15625-0.875-0.625-0.65625-0.34375-0.0625zm6 0-0.8125 0.40625-0.15625 0.875 0.625 0.65625 0.34375 0.0625h2l0.8125-0.40625 0.15625-0.875-0.625-0.65625-0.34375-0.0625zm6 0-0.8125 0.40625-0.15625 0.875 0.625 0.65625 0.34375 0.0625h2l0.8125-0.40625 0.15625-0.875-0.625-0.65625-0.34375-0.0625zm3.7188 2.0312-0.65625 0.625-0.0625 0.34375v2l0.40625 0.8125 0.875 0.15625 0.65625-0.625 0.0625-0.34375v-2l-0.40625-0.8125zm-40 2-0.65625 0.625-0.0625 0.34375v2l0.40625 0.8125 0.875 0.15625 0.65625-0.625 0.0625-0.34375v-2l-0.40625-0.8125zm23 1.9688c-0.44922 0.07813-0.78906 0.45312-0.82812 0.91016-0.03516 0.45312 0.24219 0.875 0.67188 1.0273 0.03125 0.01172 0.0625 0.02344 0.09375 0.03125 0.11328 0.03125 0.22656 0.039063 0.34375 0.03125h8.5938l-9.8125 9.7812-2.2188 2.2188h-20.562v22h22v-20.562l12-12.031v8.5938c-0.0078 0.30859 0.12891 0.60156 0.36719 0.79688 0.23438 0.19531 0.55078 0.26953 0.85156 0.20312 0.10156-0.02734 0.19531-0.07031 0.28125-0.125 0.01953-0.0078 0.04297-0.01953 0.0625-0.03125 0.05859-0.04687 0.10938-0.09766 0.15625-0.15625 0.17969-0.18359 0.27734-0.42969 0.28125-0.6875v-12h-12-0.09375-0.09375-0.09375zm17 2.0312-0.65625 0.625-0.0625 0.34375v2l0.40625 0.8125 0.875 0.15625 0.65625-0.625 0.0625-0.34375v-2l-0.40625-0.8125zm-40 2-0.65625 0.625-0.0625 0.34375v2l0.40625 0.8125 0.875 0.15625 0.65625-0.625 0.0625-0.34375v-2l-0.40625-0.8125zm40 4-0.65625 0.625-0.0625 0.34375v2l0.40625 0.8125 0.875 0.15625 0.65625-0.625 0.0625-0.34375v-2l-0.40625-0.8125zm-40 2-0.65625 0.625-0.0625 0.34375v2l0.40625 0.8125 0.875 0.15625 0.65625-0.625 0.0625-0.34375v-2l-0.40625-0.8125zm40 4-0.65625 0.625-0.0625 0.34375v2l0.40625 0.8125 0.875 0.15625 0.65625-0.625 0.0625-0.34375v-2l-0.40625-0.8125zm-38.719 1.9688h18v18h-18zm38.719 4.0312-0.65625 0.625-0.0625 0.34375v2l0.40625 0.8125 0.875 0.15625 0.65625-0.625 0.0625-0.34375v-2l-0.40625-0.8125zm0 6-0.65625 0.625-0.0625 0.34375v2l0.40625 0.8125 0.875 0.15625 0.65625-0.625 0.0625-0.34375v-2l-0.40625-0.8125zm0 6-0.65625 0.625-0.0625 0.34375v2l0.40625 0.8125 0.875 0.15625 0.65625-0.625 0.0625-0.34375v-2l-0.40625-0.8125zm-17.719 1.9688-0.8125 0.40625-0.15625 0.875 0.625 0.65625 0.34375 0.0625h2l0.8125-0.40625 0.15625-0.875-0.625-0.65625-0.34375-0.0625zm6 0-0.8125 0.40625-0.15625 0.875 0.625 0.65625 0.34375 0.0625h2l0.8125-0.40625 0.15625-0.875-0.625-0.65625-0.34375-0.0625zm6 0-0.8125 0.40625-0.15625 0.875 0.625 0.65625 0.34375 0.0625h2l0.8125-0.40625 0.15625-0.875-0.625-0.65625-0.34375-0.0625z"/>
 </g>
</svg>
