<svg xmlns="http://www.w3.org/2000/svg" xmlns:xlink="http://www.w3.org/1999/xlink" viewBox="0 0 64 64" version="1.1" class="custom-svg">
    <path d="M 21 3 C 19.343 3.013 18.010437 4.3664375 18.023438 6.0234375 C 18.033438 7.2774375 18.821 8.3923125 20 8.8203125 L 20 13 L 10 13 C 9 13 8 13.179688 8 13.179688 C 6.443 13.744687 5.638125 15.466437 6.203125 17.023438 C 6.5120537 17.874435 7.1813062 18.5164 8 18.814453 L 8 59 L 5 59 C 4.448 59 4 59.448 4 60 C 4 60.552 4.448 61 5 61 L 59 61 C 59.552 61 60 60.552 60 60 C 60 59.448 59.552 59 59 59 L 56 59 L 56 24.820312 C 57.557 24.255312 58.361875 22.533563 57.796875 20.976562 C 57.368875 19.797562 56.254 19.01 55 19 L 44 19 L 44 8.8203125 C 45.557 8.2553125 46.361875 6.5335625 45.796875 4.9765625 C 45.368875 3.7975625 44.254 3.01 43 3 L 38 3 L 34 3 L 21 3 z M 21 5 L 43 5 C 43.552 5 44 5.448 44 6 C 44 6.552 43.552 7 43 7 L 21 7 C 20.448 7 20 6.552 20 6 C 20 5.448 20.448 5 21 5 z M 22 9 L 42 9 L 42 50 L 42 53 L 36 53 C 36 51.897 35.103 51 34 51 L 30 51 C 28.897 51 28 51.897 28 53 L 22 53 L 22 50 L 22 13 L 31 13 C 31.552 13 32 12.552 32 12 C 32 11.448 31.552 11 31 11 L 22 11 L 22 9 z M 35 11 C 34.448 11 34 11.448 34 12 C 34 12.552 34.448 13 35 13 L 39 13 C 39.552 13 40 12.552 40 12 C 40 11.448 39.552 11 39 11 L 35 11 z M 9 15 L 20 15 L 20 17 L 9 17 C 8.448 17 8 16.552 8 16 C 8 15.448 8.448 15 9 15 z M 27 15 C 26.448 15 26 15.448 26 16 C 26 16.552 26.448 17 27 17 L 29 17 C 29.552 17 30 16.552 30 16 C 30 15.448 29.552 15 29 15 L 27 15 z M 35 15 C 34.448 15 34 15.448 34 16 C 34 16.552 34.448 17 35 17 L 37 17 C 37.552 17 38 16.552 38 16 C 38 15.448 37.552 15 37 15 L 35 15 z M 10 19 L 20 19 L 20 59 L 10 59 L 10 19 z M 27 19 C 26.448 19 26 19.448 26 20 C 26 20.552 26.448 21 27 21 L 29 21 C 29.552 21 30 20.552 30 20 C 30 19.448 29.552 19 29 19 L 27 19 z M 35 19 C 34.448 19 34 19.448 34 20 C 34 20.552 34.448 21 35 21 L 37 21 C 37.552 21 38 20.552 38 20 C 38 19.448 37.552 19 37 19 L 35 19 z M 15 21 C 14.448 21 14 21.448 14 22 C 14 22.552 14.448 23 15 23 L 17 23 C 17.552 23 18 22.552 18 22 C 18 21.448 17.552 21 17 21 L 15 21 z M 44 21 L 55 21 C 55.552 21 56 21.448 56 22 C 56 22.552 55.552 23 55 23 L 44 23 L 44 21 z M 27 23 C 26.448 23 26 23.448 26 24 C 26 24.552 26.448 25 27 25 L 29 25 C 29.552 25 30 24.552 30 24 C 30 23.448 29.552 23 29 23 L 27 23 z M 35 23 C 34.448 23 34 23.448 34 24 C 34 24.552 34.448 25 35 25 L 37 25 C 37.552 25 38 24.552 38 24 C 38 23.448 37.552 23 37 23 L 35 23 z M 15 25 C 14.448 25 14 25.448 14 26 C 14 26.552 14.448 27 15 27 L 17 27 C 17.552 27 18 26.552 18 26 C 18 25.448 17.552 25 17 25 L 15 25 z M 44 25 L 54 25 L 54 59 L 44 59 L 44 25 z M 27 27 C 26.448 27 26 27.448 26 28 C 26 28.552 26.448 29 27 29 L 29 29 C 29.552 29 30 28.552 30 28 C 30 27.448 29.552 27 29 27 L 27 27 z M 35 27 C 34.448 27 34 27.448 34 28 C 34 28.552 34.448 29 35 29 L 37 29 C 37.552 29 38 28.552 38 28 C 38 27.448 37.552 27 37 27 L 35 27 z M 15 29 C 14.448 29 14 29.448 14 30 C 14 30.552 14.448 31 15 31 L 17 31 C 17.552 31 18 30.552 18 30 C 18 29.448 17.552 29 17 29 L 15 29 z M 47 29 C 46.448 29 46 29.448 46 30 C 46 30.552 46.448 31 47 31 L 49 31 C 49.552 31 50 30.552 50 30 C 50 29.448 49.552 29 49 29 L 47 29 z M 27 31 C 26.448 31 26 31.448 26 32 C 26 32.552 26.448 33 27 33 L 29 33 C 29.552 33 30 32.552 30 32 C 30 31.448 29.552 31 29 31 L 27 31 z M 35 31 C 34.448 31 34 31.448 34 32 C 34 32.552 34.448 33 35 33 L 37 33 C 37.552 33 38 32.552 38 32 C 38 31.448 37.552 31 37 31 L 35 31 z M 15 33 C 14.448 33 14 33.448 14 34 C 14 34.552 14.448 35 15 35 L 17 35 C 17.552 35 18 34.552 18 34 C 18 33.448 17.552 33 17 33 L 15 33 z M 47 33 C 46.448 33 46 33.448 46 34 C 46 34.552 46.448 35 47 35 L 49 35 C 49.552 35 50 34.552 50 34 C 50 33.448 49.552 33 49 33 L 47 33 z M 27 35 C 26.448 35 26 35.448 26 36 C 26 36.552 26.448 37 27 37 L 29 37 C 29.552 37 30 36.552 30 36 C 30 35.448 29.552 35 29 35 L 27 35 z M 35 35 C 34.448 35 34 35.448 34 36 C 34 36.552 34.448 37 35 37 L 37 37 C 37.552 37 38 36.552 38 36 C 38 35.448 37.552 35 37 35 L 35 35 z M 15 37 C 14.448 37 14 37.448 14 38 C 14 38.552 14.448 39 15 39 L 17 39 C 17.552 39 18 38.552 18 38 C 18 37.448 17.552 37 17 37 L 15 37 z M 47 37 C 46.448 37 46 37.448 46 38 C 46 38.552 46.448 39 47 39 L 49 39 C 49.552 39 50 38.552 50 38 C 50 37.448 49.552 37 49 37 L 47 37 z M 27 39 C 26.448 39 26 39.448 26 40 C 26 40.552 26.448 41 27 41 L 29 41 C 29.552 41 30 40.552 30 40 C 30 39.448 29.552 39 29 39 L 27 39 z M 35 39 C 34.448 39 34 39.448 34 40 C 34 40.552 34.448 41 35 41 L 37 41 C 37.552 41 38 40.552 38 40 C 38 39.448 37.552 39 37 39 L 35 39 z M 15 41 C 14.448 41 14 41.448 14 42 C 14 42.552 14.448 43 15 43 L 17 43 C 17.552 43 18 42.552 18 42 C 18 41.448 17.552 41 17 41 L 15 41 z M 47 41 C 46.448 41 46 41.448 46 42 C 46 42.552 46.448 43 47 43 L 49 43 C 49.552 43 50 42.552 50 42 C 50 41.448 49.552 41 49 41 L 47 41 z M 27 43 C 26.448 43 26 43.448 26 44 C 26 44.552 26.448 45 27 45 L 29 45 C 29.552 45 30 44.552 30 44 C 30 43.448 29.552 43 29 43 L 27 43 z M 35 43 C 34.448 43 34 43.448 34 44 C 34 44.552 34.448 45 35 45 L 37 45 C 37.552 45 38 44.552 38 44 C 38 43.448 37.552 43 37 43 L 35 43 z M 15 45 C 14.448 45 14 45.448 14 46 C 14 46.552 14.448 47 15 47 L 17 47 C 17.552 47 18 46.552 18 46 C 18 45.448 17.552 45 17 45 L 15 45 z M 47 45 C 46.448 45 46 45.448 46 46 C 46 46.552 46.448 47 47 47 L 49 47 C 49.552 47 50 46.552 50 46 C 50 45.448 49.552 45 49 45 L 47 45 z M 27 47 C 26.448 47 26 47.448 26 48 C 26 48.552 26.448 49 27 49 L 29 49 C 29.552 49 30 48.552 30 48 C 30 47.448 29.552 47 29 47 L 27 47 z M 35 47 C 34.448 47 34 47.448 34 48 C 34 48.552 34.448 49 35 49 L 37 49 C 37.552 49 38 48.552 38 48 C 38 47.448 37.552 47 37 47 L 35 47 z M 15 49 C 14.448 49 14 49.448 14 50 C 14 50.552 14.448 51 15 51 L 17 51 C 17.552 51 18 50.552 18 50 C 18 49.448 17.552 49 17 49 L 15 49 z M 47 49 C 46.448 49 46 49.448 46 50 C 46 50.552 46.448 51 47 51 L 49 51 C 49.552 51 50 50.552 50 50 C 50 49.448 49.552 49 49 49 L 47 49 z M 15 53 C 14.448 53 14 53.448 14 54 C 14 54.552 14.448 55 15 55 L 17 55 C 17.552 55 18 54.552 18 54 C 18 53.448 17.552 53 17 53 L 15 53 z M 30 53 L 34 53 L 34.001953 59 L 34 59 L 30 59 L 30 53 z M 47 53 C 46.448 53 46 53.448 46 54 C 46 54.552 46.448 55 47 55 L 49 55 C 49.552 55 50 54.552 50 54 C 50 53.448 49.552 53 49 53 L 47 53 z M 22 55 L 28 55 L 28 59 L 22 59 L 22 55 z M 36 55 L 42 55 L 42 59 L 38 59 L 36 59 L 36 55 z"></path>
</svg> 
