<svg xmlns="http://www.w3.org/2000/svg" xmlns:xlink="http://www.w3.org/1999/xlink" viewBox="0 0 64 64" version="1.1" class="custom-svg">
    <path d="M 35 0 C 20.839 0 10.328813 9.41 10.007812 22.375 C 9.9998125 22.69 9.9503281 22.985 9.8613281 23.25 L 4.4414062 39.511719 C 4.2494062 40.087719 4.3272969 40.709703 4.6542969 41.220703 C 4.9812969 41.731703 5.5161406 42.063859 6.1191406 42.130859 L 9.109375 42.464844 C 9.617375 42.520844 10 42.946031 10 43.457031 L 10 52.53125 C 10 53.95125 10.606063 55.309812 11.664062 56.257812 C 12.723062 57.204813 14.139734 57.660953 15.552734 57.501953 L 18.451172 57.179688 L 18.455078 57.179688 L 23.841797 56.580078 L 23.308594 60.607422 C 23.194594 61.463422 23.456391 62.328516 24.025391 62.978516 C 24.595391 63.628516 25.41725 64.001953 26.28125 64.001953 L 52.777344 64.001953 C 53.626344 64.001953 54.440813 63.638813 55.007812 63.007812 C 55.574813 62.376812 55.850719 61.5315 55.761719 60.6875 L 54.324219 47.039062 C 54.188219 45.739062 54.414516 44.43925 54.978516 43.28125 C 58.263516 36.55325 60 29.194 60 22 C 60 9.047 49.72 0 35 0 z M 35 2 C 50.888 2 58 12.045 58 22 C 58 28.891 56.333641 35.947297 53.181641 42.404297 C 52.452641 43.900297 52.159937 45.574094 52.335938 47.246094 L 53.773438 60.894531 C 53.803437 61.181531 53.714484 61.456922 53.521484 61.669922 C 53.330484 61.882922 53.064344 62 52.777344 62 L 26.28125 62 C 25.98925 62 25.721297 61.878203 25.529297 61.658203 C 25.337297 61.438203 25.253016 61.159141 25.291016 60.869141 L 25.888672 56.351562 L 29.111328 55.992188 C 29.660328 55.931188 30.055141 55.437672 29.994141 54.888672 C 29.933141 54.338672 29.435625 53.939859 28.890625 54.005859 L 26.160156 54.308594 L 15.332031 55.511719 C 14.484031 55.608719 13.634047 55.334625 12.998047 54.765625 C 12.354047 54.189625 12 53.39625 12 52.53125 L 12 43.457031 C 12 41.926031 10.852078 40.645563 9.3300781 40.476562 L 6.3398438 40.142578 L 11.759766 23.882812 C 11.911766 23.428812 11.994813 22.938828 12.007812 22.423828 C 12.300813 10.589828 21.97 2 35 2 z M 35 5 C 34.448 5 34 5.448 34 6 L 34 8 C 34 8.552 34.448 9 35 9 C 35.552 9 36 8.552 36 8 L 36 6 C 36 5.448 35.552 5 35 5 z M 29.572266 5.7402344 C 29.443422 5.7224375 29.310031 5.729125 29.175781 5.765625 C 28.642781 5.908625 28.32575 6.4562344 28.46875 6.9902344 L 28.986328 8.9238281 C 29.106328 9.3708281 29.509172 9.6640625 29.951172 9.6640625 C 30.036172 9.6640625 30.123938 9.6548594 30.210938 9.6308594 C 30.743938 9.4878594 31.060969 8.9382969 30.917969 8.4042969 L 30.400391 6.4726562 C 30.293141 6.0729062 29.958797 5.793625 29.572266 5.7402344 z M 40.425781 5.7402344 C 40.039391 5.793625 39.704906 6.0729063 39.597656 6.4726562 L 39.080078 8.4042969 C 38.938078 8.9382969 39.254109 9.4888594 39.787109 9.6308594 C 39.874109 9.6538594 39.961875 9.6640625 40.046875 9.6640625 C 40.488875 9.6640625 40.892719 9.3708281 41.011719 8.9238281 L 41.529297 6.9902344 C 41.672297 6.4562344 41.355266 5.908625 40.822266 5.765625 C 40.688266 5.729125 40.554578 5.7224375 40.425781 5.7402344 z M 24.125 7.8867188 C 23.996219 7.9028125 23.86925 7.9444219 23.75 8.0136719 C 23.271 8.2896719 23.108766 8.9028594 23.384766 9.3808594 L 24.384766 11.111328 C 24.570766 11.432328 24.905953 11.611328 25.251953 11.611328 C 25.420953 11.611328 25.593 11.569516 25.75 11.478516 C 26.229 11.202516 26.391234 10.589328 26.115234 10.111328 L 25.115234 8.3808594 C 24.907484 8.0216094 24.511344 7.8384375 24.125 7.8867188 z M 45.873047 7.8886719 C 45.486187 7.8407656 45.091766 8.0223594 44.884766 8.3808594 L 43.884766 10.113281 C 43.608766 10.590281 43.771 11.201516 44.25 11.478516 C 44.407 11.569516 44.579047 11.613281 44.748047 11.613281 C 45.094047 11.613281 45.430234 11.434281 45.615234 11.113281 L 46.615234 9.3808594 C 46.891234 8.9028594 46.728 8.291625 46.25 8.015625 C 46.13025 7.946625 46.002 7.9046406 45.873047 7.8886719 z M 35.337891 13.070312 C 35.208766 13.087313 35.08375 13.128812 34.96875 13.195312 C 34.73975 13.328313 34.570953 13.546734 34.501953 13.802734 L 25.701172 46.644531 C 25.558172 47.177531 25.874203 47.726141 26.408203 47.869141 L 30.271484 48.904297 C 30.356484 48.927297 30.44425 48.939453 30.53125 48.939453 C 30.70525 48.939453 30.87825 48.893688 31.03125 48.804688 C 31.26025 48.671687 31.427094 48.453266 31.496094 48.197266 L 40.296875 15.355469 C 40.439875 14.821469 40.123844 14.273859 39.589844 14.130859 L 35.726562 13.095703 C 35.599063 13.061203 35.467016 13.053312 35.337891 13.070312 z M 36.175781 15.285156 L 38.107422 15.804688 L 29.824219 46.714844 L 27.892578 46.195312 L 36.175781 15.285156 z M 23 21 C 22.74425 21 22.488469 21.097469 22.292969 21.292969 L 13.292969 30.292969 C 12.901969 30.683969 12.901969 31.316031 13.292969 31.707031 L 22.292969 40.707031 C 22.487969 40.902031 22.744 41 23 41 C 23.256 41 23.512031 40.902031 23.707031 40.707031 L 26.707031 37.707031 C 27.098031 37.316031 27.098031 36.683969 26.707031 36.292969 L 21.414062 31 L 26.707031 25.707031 C 27.098031 25.316031 27.098031 24.683969 26.707031 24.292969 L 23.707031 21.292969 C 23.511531 21.097469 23.25575 21 23 21 z M 43 21 C 42.74425 21 42.488469 21.097469 42.292969 21.292969 L 39.292969 24.292969 C 38.901969 24.683969 38.901969 25.316031 39.292969 25.707031 L 44.585938 31 L 39.292969 36.292969 C 38.901969 36.683969 38.901969 37.316031 39.292969 37.707031 L 42.292969 40.707031 C 42.487969 40.902031 42.744 41 43 41 C 43.256 41 43.512031 40.902031 43.707031 40.707031 L 52.707031 31.707031 C 53.098031 31.316031 53.098031 30.683969 52.707031 30.292969 L 43.707031 21.292969 C 43.511531 21.097469 43.25575 21 43 21 z M 23 23.414062 L 24.585938 25 L 19.292969 30.292969 C 18.901969 30.683969 18.901969 31.316031 19.292969 31.707031 L 24.585938 37 L 23 38.585938 L 15.414062 31 L 23 23.414062 z M 43 23.414062 L 50.585938 31 L 43 38.585938 L 41.414062 37 L 46.707031 31.707031 C 47.098031 31.316031 47.098031 30.683969 46.707031 30.292969 L 41.414062 25 L 43 23.414062 z"></path>
</svg> 
