<svg xmlns="http://www.w3.org/2000/svg" xmlns:xlink="http://www.w3.org/1999/xlink" viewBox="0 0 64 64" version="1.1" class="custom-svg">
    <path d="M 27.177734 0.9375 C 26.364031 0.868125 25.538219 1.0512969 24.824219 1.4667969 C 23.872219 2.0197969 23.183547 2.9513906 22.935547 4.0253906 L 22.216797 7.1425781 C 18.801797 8.0615781 17 9.415125 17 11.078125 C 17 12.602125 18.500922 13.762984 20.794922 14.583984 C 20.361922 14.913984 20.041391 15.442859 19.900391 16.130859 C 19.740391 16.890859 19.789297 17.810703 20.029297 18.720703 C 20.349297 19.920703 20.959219 20.930469 21.699219 21.480469 C 22.059219 21.750469 22.269375 21.980469 22.359375 22.230469 C 22.579375 22.820469 22.829141 23.42 23.119141 24 L 5 24 C 3.35 24 2 25.35 2 27 L 2 55 C 2 56.65 3.35 58 5 58 L 23.740234 58 L 23.140625 62 L 20 62 C 19.448 62 19 62.447 19 63 C 19 63.553 19.448 64 20 64 L 22.839844 64 L 41.160156 64 L 44 64 C 44.552 64 45 63.553 45 63 C 45 62.447 44.552 62 44 62 L 40.859375 62 L 40.259766 58 L 59 58 C 60.65 58 62 56.65 62 55 L 62 27 C 62 25.35 60.65 24 59 24 L 40.880859 24 C 41.170859 23.42 41.420625 22.820469 41.640625 22.230469 C 41.730625 21.980469 41.940781 21.750469 42.300781 21.480469 C 43.040781 20.930469 43.650703 19.920703 43.970703 18.720703 C 44.210703 17.810703 44.259609 16.890859 44.099609 16.130859 C 43.959609 15.442859 43.639078 14.914984 43.205078 14.583984 C 45.499078 13.762984 47 12.603125 47 11.078125 C 47 9.415125 45.19825 8.0605781 41.78125 7.1425781 L 41.0625 4.0253906 C 40.8145 2.9523906 40.125828 2.0197969 39.173828 1.4667969 C 38.221828 0.91279687 37.069672 0.77779688 36.013672 1.0917969 L 34.009766 1.6933594 C 32.694766 2.0893594 31.303281 2.0893594 29.988281 1.6933594 L 27.982422 1.0917969 C 27.718672 1.0122969 27.448969 0.960625 27.177734 0.9375 z M 26.830078 2.9238281 C 27.023078 2.9238281 27.217203 2.9517656 27.408203 3.0097656 L 29.412109 3.6113281 C 31.104109 4.1193281 32.892937 4.1193281 34.585938 3.6113281 L 36.589844 3.0097656 C 37.125844 2.8477656 37.685922 2.9152656 38.169922 3.1972656 C 38.652922 3.4782656 38.988281 3.9325625 39.113281 4.4765625 L 40.109375 8.7890625 L 40.710938 8.9355469 C 43.951937 9.7135469 45 10.715125 45 11.078125 C 45 11.991125 40.577 14.132813 32 14.132812 C 23.423 14.132812 19 11.991125 19 11.078125 C 19 10.723125 20.017797 9.7592813 23.091797 8.9882812 C 26.001797 9.7942813 28.979375 10.210937 31.984375 10.210938 C 32.812375 10.210938 33.643609 10.179187 34.474609 10.117188 C 35.025609 10.076187 35.437484 9.596875 35.396484 9.046875 C 35.355484 8.496875 34.872172 8.0710469 34.326172 8.1230469 C 30.929172 8.3750469 27.544 8.073375 24.25 7.234375 L 24.886719 4.4746094 C 25.011719 3.9306094 25.347078 3.4763125 25.830078 3.1953125 C 26.141078 3.0143125 26.483078 2.9238281 26.830078 2.9238281 z M 38.236328 7.5859375 C 37.718328 7.6909375 37.198734 7.781375 36.677734 7.859375 C 36.131734 7.942375 35.755891 8.4510469 35.837891 8.9980469 C 35.913891 9.4930469 36.338219 9.8496094 36.824219 9.8496094 C 36.874219 9.8496094 36.924609 9.8468437 36.974609 9.8398438 C 37.529609 9.7558438 38.083766 9.657875 38.634766 9.546875 C 39.176766 9.436875 39.524062 8.9072344 39.414062 8.3652344 C 39.304063 7.8242344 38.774328 7.4829375 38.236328 7.5859375 z M 23.652344 15.357422 C 26.175344 15.876422 29.127 16.132812 32 16.132812 C 34.873 16.132812 37.824656 15.876422 40.347656 15.357422 L 38.552734 18.949219 C 38.219734 19.613219 37.552547 20.025391 36.810547 20.025391 L 35.119141 20.025391 C 34.941141 20.025391 34.775312 19.922672 34.695312 19.763672 L 34.212891 18.794922 C 33.791891 17.950922 32.941047 17.427734 31.998047 17.427734 C 31.055047 17.427734 30.206156 17.950922 29.785156 18.794922 L 29.302734 19.763672 C 29.221734 19.924672 29.059906 20.025391 28.878906 20.025391 L 27.189453 20.025391 C 26.447453 20.025391 25.779266 19.613219 25.447266 18.949219 L 23.652344 15.357422 z M 21.886719 16.298828 L 23.660156 19.84375 C 24.333156 21.18975 25.685453 22.025391 27.189453 22.025391 L 28.878906 22.025391 C 29.821906 22.025391 30.669797 21.502203 31.091797 20.658203 L 31.574219 19.689453 C 31.692219 19.452453 31.910047 19.427734 31.998047 19.427734 C 32.086047 19.427734 32.305828 19.451453 32.423828 19.689453 L 32.90625 20.658203 C 33.32825 21.502203 34.176141 22.025391 35.119141 22.025391 L 36.810547 22.025391 C 38.314547 22.025391 39.667797 21.18975 40.341797 19.84375 L 42.091797 16.34375 C 42.200797 16.66375 42.273063 17.320219 42.039062 18.199219 C 41.789062 19.099219 41.379609 19.669141 41.099609 19.869141 C 40.429609 20.379141 39.989766 20.919062 39.759766 21.539062 C 39.459766 22.359063 39.059844 23.198047 38.589844 23.998047 L 25.410156 23.998047 C 24.940156 23.198047 24.540234 22.359063 24.240234 21.539062 C 24.010234 20.920063 23.570391 20.379141 22.900391 19.869141 C 22.620391 19.669141 22.210937 19.099219 21.960938 18.199219 C 21.840937 17.749219 21.800781 17.360781 21.800781 17.050781 C 21.800781 16.691781 21.847719 16.435828 21.886719 16.298828 z M 5 26 L 24.310547 26 L 26.820312 26 L 37.179688 26 L 39.689453 26 L 59 26 C 59.55 26 60 26.45 60 27 L 60 55 C 60 55.55 59.55 56 59 56 L 39.960938 56 L 38.240234 44.550781 C 38.030234 43.100781 36.749297 42 35.279297 42 L 28.720703 42 C 27.250703 42 25.969766 43.100781 25.759766 44.550781 L 24.039062 56 L 5 56 C 4.45 56 4 55.55 4 55 L 4 27 C 4 26.45 4.45 26 5 26 z M 7 35.054688 C 6.448 35.054688 6 35.501688 6 36.054688 L 6 38.054688 C 6 38.607687 6.448 39.054688 7 39.054688 C 7.552 39.054688 8 38.607687 8 38.054688 L 8 36.054688 C 8 35.501688 7.552 35.054688 7 35.054688 z M 12 35.054688 C 11.448 35.054688 11 35.501688 11 36.054688 L 11 38.054688 C 11 38.607687 11.448 39.054688 12 39.054688 C 12.552 39.054688 13 38.607687 13 38.054688 L 13 36.054688 C 13 35.501688 12.552 35.054688 12 35.054688 z M 17 35.054688 C 16.448 35.054688 16 35.501688 16 36.054688 L 16 38.054688 C 16 38.607687 16.448 39.054688 17 39.054688 C 17.552 39.054688 18 38.607687 18 38.054688 L 18 36.054688 C 18 35.501688 17.552 35.054688 17 35.054688 z M 22 35.054688 C 21.448 35.054688 21 35.501688 21 36.054688 L 21 38.054688 C 21 38.607687 21.448 39.054688 22 39.054688 C 22.552 39.054688 23 38.607687 23 38.054688 L 23 36.054688 C 23 35.501688 22.552 35.054688 22 35.054688 z M 27 35.054688 C 26.448 35.054688 26 35.501688 26 36.054688 L 26 38.054688 C 26 38.607687 26.448 39.054688 27 39.054688 C 27.552 39.054688 28 38.607687 28 38.054688 L 28 36.054688 C 28 35.501688 27.552 35.054688 27 35.054688 z M 32 35.054688 C 31.448 35.054688 31 35.501688 31 36.054688 L 31 38.054688 C 31 38.607687 31.448 39.054688 32 39.054688 C 32.552 39.054688 33 38.607687 33 38.054688 L 33 36.054688 C 33 35.501688 32.552 35.054688 32 35.054688 z M 37 35.054688 C 36.448 35.054688 36 35.501688 36 36.054688 L 36 38.054688 C 36 38.607687 36.448 39.054688 37 39.054688 C 37.552 39.054688 38 38.607687 38 38.054688 L 38 36.054688 C 38 35.501688 37.552 35.054688 37 35.054688 z M 42 35.054688 C 41.448 35.054688 41 35.501688 41 36.054688 L 41 38.054688 C 41 38.607687 41.448 39.054688 42 39.054688 C 42.552 39.054688 43 38.607687 43 38.054688 L 43 36.054688 C 43 35.501688 42.552 35.054688 42 35.054688 z M 47 35.054688 C 46.448 35.054688 46 35.501688 46 36.054688 L 46 38.054688 C 46 38.607687 46.448 39.054688 47 39.054688 C 47.552 39.054688 48 38.607687 48 38.054688 L 48 36.054688 C 48 35.501688 47.552 35.054688 47 35.054688 z M 52 35.054688 C 51.448 35.054688 51 35.501688 51 36.054688 L 51 38.054688 C 51 38.607687 51.448 39.054688 52 39.054688 C 52.552 39.054688 53 38.607687 53 38.054688 L 53 36.054688 C 53 35.501688 52.552 35.054688 52 35.054688 z M 57 35.054688 C 56.448 35.054688 56 35.501688 56 36.054688 L 56 38.054688 C 56 38.607687 56.448 39.054688 57 39.054688 C 57.552 39.054688 58 38.607687 58 38.054688 L 58 36.054688 C 58 35.501688 57.552 35.054688 57 35.054688 z M 28.720703 44 L 35.279297 44 C 35.769297 44 36.189531 44.369609 36.269531 44.849609 L 37.939453 56 L 38.240234 58 L 38.839844 62 L 25.160156 62 L 25.759766 58 L 26.060547 56 L 27.730469 44.849609 C 27.810469 44.369609 28.230703 44 28.720703 44 z"></path>
</svg> 
