<svg xmlns="http://www.w3.org/2000/svg" xmlns:xlink="http://www.w3.org/1999/xlink" viewBox="0 0 64 64" version="1.1" class="custom-svg">
    <path d="M 7 8 C 5.343 8 4 9.343 4 11 L 4 53 C 4 54.657 5.343 56 7 56 L 57 56 C 58.657 56 60 54.657 60 53 L 60 11 C 60 9.343 58.657 8 57 8 L 7 8 z M 7 10 L 57 10 C 57.552 10 58 10.448 58 11 L 58 44 L 6 44 L 6 11 C 6 10.448 6.448 10 7 10 z M 21 12 A 1 1 0 0 0 20 13 A 1 1 0 0 0 21 14 A 1 1 0 0 0 22 13 A 1 1 0 0 0 21 12 z M 43 12 A 1 1 0 0 0 42 13 A 1 1 0 0 0 43 14 A 1 1 0 0 0 44 13 A 1 1 0 0 0 43 12 z M 21 16 A 1 1 0 0 0 20 17 A 1 1 0 0 0 21 18 A 1 1 0 0 0 22 17 A 1 1 0 0 0 21 16 z M 43 16 A 1 1 0 0 0 42 17 A 1 1 0 0 0 43 18 A 1 1 0 0 0 44 17 A 1 1 0 0 0 43 16 z M 55 17 C 54.74425 17 54.488469 17.097469 54.292969 17.292969 L 51 20.585938 L 49.707031 19.292969 C 49.316031 18.901969 48.683969 18.901969 48.292969 19.292969 L 43 24.585938 L 40.707031 22.292969 C 40.316031 21.901969 39.683969 21.901969 39.292969 22.292969 L 36 25.585938 L 34.707031 24.292969 C 34.316031 23.901969 33.683969 23.901969 33.292969 24.292969 L 27.947266 29.638672 L 21.650391 24.242188 C 21.254391 23.903188 20.662969 23.925922 20.292969 24.294922 L 14 30.585938 L 12.707031 29.292969 C 12.316031 28.901969 11.683969 28.901969 11.292969 29.292969 L 8.2929688 32.292969 C 7.9019687 32.683969 7.9019688 33.316031 8.2929688 33.707031 C 8.4879687 33.902031 8.744 34 9 34 C 9.256 34 9.5120312 33.902031 9.7070312 33.707031 L 12 31.414062 L 13.292969 32.707031 C 13.683969 33.098031 14.316031 33.098031 14.707031 32.707031 L 21.052734 26.361328 L 27.349609 31.757812 C 27.746609 32.098813 28.337031 32.075078 28.707031 31.705078 L 34 26.414062 L 35.292969 27.707031 C 35.683969 28.098031 36.316031 28.098031 36.707031 27.707031 L 40 24.414062 L 42.292969 26.707031 C 42.683969 27.098031 43.316031 27.098031 43.707031 26.707031 L 49 21.414062 L 50.292969 22.707031 C 50.683969 23.098031 51.316031 23.098031 51.707031 22.707031 L 55.707031 18.707031 C 56.098031 18.316031 56.098031 17.683969 55.707031 17.292969 C 55.511531 17.097469 55.25575 17 55 17 z M 21 20 A 1 1 0 0 0 20 21 A 1 1 0 0 0 21 22 A 1 1 0 0 0 22 21 A 1 1 0 0 0 21 20 z M 43 20 A 1 1 0 0 0 42 21 A 1 1 0 0 0 43 22 A 1 1 0 0 0 44 21 A 1 1 0 0 0 43 20 z M 21 29 A 1 1 0 0 0 20 30 A 1 1 0 0 0 21 31 A 1 1 0 0 0 22 30 A 1 1 0 0 0 21 29 z M 43 29 A 1 1 0 0 0 42 30 A 1 1 0 0 0 43 31 A 1 1 0 0 0 44 30 A 1 1 0 0 0 43 29 z M 21 33 A 1 1 0 0 0 20 34 A 1 1 0 0 0 21 35 A 1 1 0 0 0 22 34 A 1 1 0 0 0 21 33 z M 43 33 A 1 1 0 0 0 42 34 A 1 1 0 0 0 43 35 A 1 1 0 0 0 44 34 A 1 1 0 0 0 43 33 z M 21 37 A 1 1 0 0 0 20 38 A 1 1 0 0 0 21 39 A 1 1 0 0 0 22 38 A 1 1 0 0 0 21 37 z M 43 37 A 1 1 0 0 0 42 38 A 1 1 0 0 0 43 39 A 1 1 0 0 0 44 38 A 1 1 0 0 0 43 37 z M 21 41 A 1 1 0 0 0 20 42 A 1 1 0 0 0 21 43 A 1 1 0 0 0 22 42 A 1 1 0 0 0 21 41 z M 43 41 A 1 1 0 0 0 42 42 A 1 1 0 0 0 43 43 A 1 1 0 0 0 44 42 A 1 1 0 0 0 43 41 z M 6 46 L 58 46 L 58 53 C 58 53.552 57.552 54 57 54 L 7 54 C 6.448 54 6 53.552 6 53 L 6 46 z M 10 48 C 9.448 48 9 48.448 9 49 L 9 51 C 9 51.552 9.448 52 10 52 C 10.552 52 11 51.552 11 51 L 11 49 C 11 48.448 10.552 48 10 48 z M 15 48 C 14.448 48 14 48.448 14 49 L 14 51 C 14 51.552 14.448 52 15 52 C 15.552 52 16 51.552 16 51 L 16 49 C 16 48.448 15.552 48 15 48 z M 20 48 C 19.448 48 19 48.448 19 49 L 19 51 C 19 51.552 19.448 52 20 52 C 20.552 52 21 51.552 21 51 L 21 49 C 21 48.448 20.552 48 20 48 z M 25 48 C 24.448 48 24 48.448 24 49 L 24 51 C 24 51.552 24.448 52 25 52 C 25.552 52 26 51.552 26 51 L 26 49 C 26 48.448 25.552 48 25 48 z M 30 48 C 29.448 48 29 48.448 29 49 L 29 51 C 29 51.552 29.448 52 30 52 C 30.552 52 31 51.552 31 51 L 31 49 C 31 48.448 30.552 48 30 48 z M 35 48 C 34.448 48 34 48.448 34 49 L 34 51 C 34 51.552 34.448 52 35 52 C 35.552 52 36 51.552 36 51 L 36 49 C 36 48.448 35.552 48 35 48 z M 40 48 C 39.448 48 39 48.448 39 49 L 39 51 C 39 51.552 39.448 52 40 52 C 40.552 52 41 51.552 41 51 L 41 49 C 41 48.448 40.552 48 40 48 z M 45 48 C 44.448 48 44 48.448 44 49 L 44 51 C 44 51.552 44.448 52 45 52 C 45.552 52 46 51.552 46 51 L 46 49 C 46 48.448 45.552 48 45 48 z M 50 48 C 49.448 48 49 48.448 49 49 L 49 51 C 49 51.552 49.448 52 50 52 C 50.552 52 51 51.552 51 51 L 51 49 C 51 48.448 50.552 48 50 48 z M 55 48 C 54.448 48 54 48.448 54 49 L 54 51 C 54 51.552 54.448 52 55 52 C 55.552 52 56 51.552 56 51 L 56 49 C 56 48.448 55.552 48 55 48 z"></path>
</svg> 
