<svg class="custom-svg" width="54px" height="54px" version="1.1" viewBox="0 0 54 54" xmlns="http://www.w3.org/2000/svg">
 <g transform="matrix(.44107 0 0 .44107 -8.2843 -32.18)">
  <g transform="matrix(1.3333 0 0 -1.3333 61.545 93.434)">
   <path d="m0 0c-2.88-9.376-10.232-36.182-5.049-50.426 4.147-11.393 16.792-17.288 28.186-13.141 5.519 2.008 9.926 6.046 12.408 11.37 2.483 5.323 2.743 11.295 0.735 16.814-5.185 14.243-28.047 30.052-36.28 35.383m15.643-70.426c-11.247-1e-3 -21.826 6.945-25.889 18.109-6.991 19.206 5.551 55.91 6.088 57.463l1.114 3.218 2.921-1.749c1.41-0.845 34.61-20.9 41.6-40.107 2.514-6.907 2.189-14.381-0.918-21.043-3.107-6.663-8.623-11.716-15.531-14.231-3.095-1.126-6.267-1.66-9.385-1.66"/>
  </g>
  <g transform="matrix(1.3333 0 0 -1.3333 81.723 187.34)">
   <path d="m0 0c-3.119 0-6.289 0.534-9.386 1.661l1.892 5.198c11.394-4.148 24.038 1.748 28.186 13.141 5.189 14.259-2.169 41.059-5.049 50.43-3.221-2.084-8.68-5.768-14.422-10.328l-3.44 4.332c9.301 7.384 17.635 12.397 17.985 12.606l2.921 1.75 1.114-3.218c0.537-1.553 13.079-38.257 6.088-57.463-4.063-11.163-14.644-18.109-25.889-18.109"/>
  </g>
 </g>
 <rect x=".40254" y=".43557" width="53.149" height="53.586" style="fill:none;stroke-width:3;"/>
</svg>
