<?xml version="1.0" encoding="UTF-8" standalone="no"?>
<svg
   xmlns:dc="http://purl.org/dc/elements/1.1/"
   xmlns:cc="http://creativecommons.org/ns#"
   xmlns:rdf="http://www.w3.org/1999/02/22-rdf-syntax-ns#"
   xmlns:svg="http://www.w3.org/2000/svg"
   xmlns="http://www.w3.org/2000/svg"
   xmlns:sodipodi="http://sodipodi.sourceforge.net/DTD/sodipodi-0.dtd"
   xmlns:inkscape="http://www.inkscape.org/namespaces/inkscape"
   width="217px"
   height="29px"
   viewBox="0 0 217 29"
   version="1.1"
   id="svg966"
   sodipodi:docname="wip-logo-base.svg"
   inkscape:version="0.92.3 (2405546, 2018-03-11)">
  <metadata
     id="metadata970">
    <rdf:RDF>
      <cc:Work
         rdf:about="">
        <dc:format>image/svg+xml</dc:format>
        <dc:type
           rdf:resource="http://purl.org/dc/dcmitype/StillImage" />
        <dc:title>logo</dc:title>
      </cc:Work>
    </rdf:RDF>
  </metadata>
  <sodipodi:namedview
     pagecolor="#ffffff"
     bordercolor="#666666"
     borderopacity="1"
     objecttolerance="10"
     gridtolerance="10"
     guidetolerance="10"
     inkscape:pageopacity="0"
     inkscape:pageshadow="2"
     inkscape:window-width="2560"
     inkscape:window-height="1377"
     id="namedview968"
     showgrid="false"
     inkscape:zoom="5.6479233"
     inkscape:cx="113.22701"
     inkscape:cy="-7.2247308"
     inkscape:window-x="0"
     inkscape:window-y="0"
     inkscape:window-maximized="1"
     inkscape:current-layer="svg966" />
  <!-- Generator: Sketch 51.3 (57544) - http://www.bohemiancoding.com/sketch -->
  <title
     id="title956">logo</title>
  <desc
     id="desc958">Created with Sketch.</desc>
  <defs
     id="defs960" />
  <g
     id="g1863"
     transform="matrix(0.26556818,0,0,0.26556818,-10.429711,-21.301004)"
     inkscape:export-xdpi="96"
     inkscape:export-ydpi="96"
     style="fill:#f59d12;fill-opacity:1">
    <g
       transform="matrix(1.3333333,0,0,-1.3333333,61.544596,93.434223)"
       id="g296"
       style="fill:#f59d12;fill-opacity:1">
      <path
         inkscape:connector-curvature="0"
         id="path298"
         style="fill:#f59d12;fill-opacity:1;fill-rule:nonzero;stroke:none"
         d="m 0,0 c -2.88,-9.376 -10.232,-36.182 -5.049,-50.426 4.147,-11.393 16.792,-17.288 28.186,-13.141 5.519,2.008 9.926,6.046 12.408,11.37 2.483,5.323 2.743,11.295 0.735,16.814 C 31.095,-21.14 8.233,-5.331 0,0 m 15.643,-70.426 c -11.247,-0.001 -21.826,6.945 -25.889,18.109 -6.991,19.206 5.551,55.91 6.088,57.463 l 1.114,3.218 2.921,-1.749 c 1.41,-0.845 34.61,-20.9 41.6,-40.107 2.514,-6.907 2.189,-14.381 -0.918,-21.043 -3.107,-6.663 -8.623,-11.716 -15.531,-14.231 -3.095,-1.126 -6.267,-1.66 -9.385,-1.66" />
    </g>
    <g
       transform="matrix(1.3333333,0,0,-1.3333333,81.722996,187.33595)"
       id="g300"
       style="fill:#f59d12;fill-opacity:1">
      <path
         inkscape:connector-curvature="0"
         id="path302"
         style="fill:#f59d12;fill-opacity:1;fill-rule:nonzero;stroke:none"
         d="m 0,0 c -3.119,0 -6.289,0.534 -9.386,1.661 l 1.892,5.198 C 3.9,2.711 16.544,8.607 20.692,20 25.881,34.259 18.523,61.059 15.643,70.43 12.422,68.346 6.963,64.662 1.221,60.102 l -3.44,4.332 c 9.301,7.384 17.635,12.397 17.985,12.606 l 2.921,1.75 1.114,-3.218 C 20.338,74.019 32.88,37.315 25.889,18.109 21.826,6.946 11.245,0 0,0" />
    </g>
  </g>
  <flowRoot
     xml:space="preserve"
     id="flowRoot1529"
     style="font-style:normal;font-variant:normal;font-weight:normal;font-stretch:normal;font-size:24px;line-height:1.25;font-family:'Lohit Assamese';-inkscape-font-specification:'Lohit Assamese';letter-spacing:0px;word-spacing:0px;fill:#000000;fill-opacity:1;stroke:none"
     transform="translate(0,5.7615341)"><flowRegion
       id="flowRegion1531"
       style="font-style:normal;font-variant:normal;font-weight:normal;font-stretch:normal;font-size:24px;font-family:'Lohit Assamese';-inkscape-font-specification:'Lohit Assamese'"><rect
         id="rect1533"
         width="192.20865"
         height="28.821146"
         x="25.370728"
         y="-3.8804653"
         style="font-style:normal;font-variant:normal;font-weight:normal;font-stretch:normal;font-size:24px;font-family:'Lohit Assamese';-inkscape-font-specification:'Lohit Assamese'" /></flowRegion><flowPara
       id="flowPara1535"
       style="font-style:normal;font-variant:normal;font-weight:bold;font-stretch:normal;font-size:26.93333244px;line-height:0;font-family:Ubuntu;-inkscape-font-specification:'Ubuntu Bold'">Tulip Solutions</flowPara></flowRoot></svg>
