<svg xmlns="http://www.w3.org/2000/svg" xmlns:xlink="http://www.w3.org/1999/xlink" viewBox="0 0 64 64" version="1.1" class="custom-svg">
<g id="error-strucutred-svg">
<path d="M 3 6 C 1.351563 6 0 7.351563 0 9 L 0 51 C 0 52.648438 1.351563 54 3 54 L 40.050781 54 C 42.359375 57.609375 46.398438 60 51 60 C 58.171875 60 64 54.171875 64 47 C 64 41.601563 60.691406 36.960938 56 35 L 56 9 C 56 7.351563 54.648438 6 53 6 Z M 3 8 L 53 8 C 53.550781 8 54 8.449219 54 9 L 54 12 L 2 12 L 2 9 C 2 8.449219 2.449219 8 3 8 Z M 2 14 L 54 14 L 54 34.347656 C 53.039063 34.121094 52.03125 34 51 34 C 43.828125 34 38 39.828125 38 47 C 38 48.769531 38.359375 50.460938 39 52 L 3 52 C 2.449219 52 2 51.550781 2 51 Z M 15 18 C 14.746094 18 14.488281 18.097656 14.292969 18.292969 L 11 21.585938 L 9.707031 20.292969 C 9.316406 19.902344 8.683594 19.902344 8.292969 20.292969 C 7.902344 20.683594 7.902344 21.316406 8.292969 21.707031 L 10.292969 23.707031 C 10.488281 23.902344 10.742188 24 11 24 C 11.257813 24 11.511719 23.902344 11.707031 23.707031 L 15.707031 19.707031 C 16.097656 19.316406 16.097656 18.683594 15.707031 18.292969 C 15.511719 18.097656 15.253906 18 15 18 Z M 19 20 C 18.445313 20 18 20.445313 18 21 C 18 21.554688 18.445313 22 19 22 L 23 22 C 23.554688 22 24 21.554688 24 21 C 24 20.445313 23.554688 20 23 20 Z M 27 20 C 26.445313 20 26 20.445313 26 21 C 26 21.554688 26.445313 22 27 22 L 43 22 C 43.554688 22 44 21.554688 44 21 C 44 20.445313 43.554688 20 43 20 Z M 15 26 C 14.746094 26 14.488281 26.097656 14.292969 26.292969 L 11 29.585938 L 9.707031 28.292969 C 9.316406 27.902344 8.683594 27.902344 8.292969 28.292969 C 7.902344 28.683594 7.902344 29.316406 8.292969 29.707031 L 10.292969 31.707031 C 10.488281 31.902344 10.742188 32 11 32 C 11.257813 32 11.511719 31.902344 11.707031 31.707031 L 15.707031 27.707031 C 16.097656 27.316406 16.097656 26.683594 15.707031 26.292969 C 15.511719 26.097656 15.253906 26 15 26 Z M 19 28 C 18.445313 28 18 28.445313 18 29 C 18 29.554688 18.445313 30 19 30 L 43 30 C 43.554688 30 44 29.554688 44 29 C 44 28.445313 43.554688 28 43 28 Z M 15 34 C 14.746094 34 14.488281 34.097656 14.292969 34.292969 L 11 37.585938 L 9.707031 36.292969 C 9.316406 35.902344 8.683594 35.902344 8.292969 36.292969 C 7.902344 36.683594 7.902344 37.316406 8.292969 37.707031 L 10.292969 39.707031 C 10.488281 39.902344 10.742188 40 11 40 C 11.257813 40 11.511719 39.902344 11.707031 39.707031 L 15.707031 35.707031 C 16.097656 35.316406 16.097656 34.683594 15.707031 34.292969 C 15.511719 34.097656 15.253906 34 15 34 Z M 19 36 C 18.445313 36 18 36.445313 18 37 C 18 37.554688 18.445313 38 19 38 L 35 38 C 35.554688 38 36 37.554688 36 37 C 36 36.445313 35.554688 36 35 36 Z M 51 36 C 52.039063 36 53.050781 36.140625 54 36.421875 C 54.699219 36.609375 55.371094 36.878906 56 37.199219 C 59.558594 39.019531 62 42.730469 62 47 C 62 53.070313 57.070313 58 51 58 C 47.589844 58 44.53125 56.441406 42.511719 54 C 42 53.378906 41.558594 52.710938 41.199219 52 C 40.429688 50.5 40 48.800781 40 47 C 40 40.929688 44.929688 36 51 36 Z M 51 39.03125 C 50.472656 39.03125 49.949219 39.226563 49.585938 39.617188 C 49.222656 40.011719 49.039063 40.542969 49.082031 41.109375 L 50.007813 49.113281 C 50.066406 49.617188 50.492188 50 51 50 C 51.507813 50 51.933594 49.617188 51.992188 49.113281 L 52.921875 41.074219 C 52.960938 40.539063 52.773438 40.011719 52.410156 39.617188 C 52.046875 39.222656 51.523438 39.027344 51 39.03125 Z M 6 46 C 5.445313 46 5 46.445313 5 47 L 5 49 C 5 49.554688 5.445313 50 6 50 C 6.554688 50 7 49.554688 7 49 L 7 47 C 7 46.445313 6.554688 46 6 46 Z M 11 46 C 10.445313 46 10 46.445313 10 47 L 10 49 C 10 49.554688 10.445313 50 11 50 C 11.554688 50 12 49.554688 12 49 L 12 47 C 12 46.445313 11.554688 46 11 46 Z M 16 46 C 15.445313 46 15 46.445313 15 47 L 15 49 C 15 49.554688 15.445313 50 16 50 C 16.554688 50 17 49.554688 17 49 L 17 47 C 17 46.445313 16.554688 46 16 46 Z M 21 46 C 20.445313 46 20 46.445313 20 47 L 20 49 C 20 49.554688 20.445313 50 21 50 C 21.554688 50 22 49.554688 22 49 L 22 47 C 22 46.445313 21.554688 46 21 46 Z M 26 46 C 25.445313 46 25 46.445313 25 47 L 25 49 C 25 49.554688 25.445313 50 26 50 C 26.554688 50 27 49.554688 27 49 L 27 47 C 27 46.445313 26.554688 46 26 46 Z M 31 46 C 30.445313 46 30 46.445313 30 47 L 30 49 C 30 49.554688 30.445313 50 31 50 C 31.554688 50 32 49.554688 32 49 L 32 47 C 32 46.445313 31.554688 46 31 46 Z M 36 46 C 35.445313 46 35 46.445313 35 47 L 35 49 C 35 49.554688 35.445313 50 36 50 C 36.554688 50 37 49.554688 37 49 L 37 47 C 37 46.445313 36.554688 46 36 46 Z M 51.039063 51 C 49.933594 51 49.039063 51.894531 49.039063 53 C 49.039063 54.105469 49.933594 55 51.039063 55 C 52.144531 55 53.039063 54.105469 53.039063 53 C 53.039063 51.894531 52.144531 51 51.039063 51 Z "></path>
</g>
</svg> 
