<svg xmlns="http://www.w3.org/2000/svg" xmlns:xlink="http://www.w3.org/1999/xlink" viewBox="0 0 64 64" version="1.1" class="custom-svg">
<g id="surface1">
<path style=" " d="M 24 4 C 22.347656 4 21 5.347656 21 7 C 21 8.652344 22.347656 10 24 10 L 24 22.9375 C 24 25.339844 23.199219 27.710938 21.738281 29.621094 L 3.125 53.964844 C 1.960938 55.484375 1.761719 57.496094 2.609375 59.214844 C 3.460938 60.933594 5.179688 62 7.09375 62 L 56.523438 62 C 58.476563 62 60.210938 60.902344 61.046875 59.136719 C 61.882813 57.367188 61.625 55.332031 60.386719 53.820313 L 40.496094 29.671875 C 38.886719 27.714844 37.992188 25.246094 37.984375 22.714844 L 37.9375 10 L 38 10 C 39.652344 10 41 8.652344 41 7 C 41 5.347656 39.652344 4 38 4 Z M 24 6 L 38 6 C 38.550781 6 39 6.449219 39 7 C 39 7.550781 38.550781 8 38 8 L 24 8 C 23.449219 8 23 7.550781 23 7 C 23 6.449219 23.449219 6 24 6 Z M 26 10 L 35.941406 10 L 35.984375 22.722656 C 35.996094 25.714844 37.046875 28.632813 38.949219 30.941406 L 44.078125 37.167969 L 40.6875 36.242188 C 37.597656 35.398438 34.316406 35.722656 31.453125 37.15625 L 30.921875 37.421875 C 27.839844 38.964844 24.160156 38.964844 21.078125 37.421875 L 19.0625 36.410156 L 23.328125 30.832031 C 25.050781 28.582031 26 25.777344 26 22.9375 Z M 29.5 28 C 27.570313 28 26 29.570313 26 31.5 C 26 33.429688 27.570313 35 29.5 35 C 31.429688 35 33 33.429688 33 31.5 C 33 29.570313 31.429688 28 29.5 28 Z M 29.5 29.78125 C 30.449219 29.78125 31.21875 30.550781 31.21875 31.5 C 31.21875 32.449219 30.449219 33.21875 29.5 33.21875 C 28.550781 33.21875 27.78125 32.449219 27.78125 31.5 C 27.78125 30.550781 28.550781 29.78125 29.5 29.78125 Z M 37.175781 37.78125 C 38.175781 37.777344 39.179688 37.90625 40.15625 38.171875 L 46.277344 39.839844 L 58.839844 55.09375 C 59.597656 56.011719 59.746094 57.203125 59.234375 58.28125 C 58.726563 59.355469 57.714844 60 56.523438 60 L 7.09375 60 C 5.925781 60 4.921875 59.375 4.40625 58.328125 C 3.886719 57.28125 4.003906 56.105469 4.710938 55.175781 L 17.824219 38.03125 L 20.1875 39.210938 C 22.003906 40.121094 24.003906 40.578125 26 40.578125 C 27.996094 40.578125 29.996094 40.121094 31.8125 39.210938 L 32.34375 38.945313 C 33.859375 38.1875 35.511719 37.796875 37.175781 37.78125 Z M 37 40 C 34.792969 40 33 41.792969 33 44 C 33 46.207031 34.792969 48 37 48 C 39.207031 48 41 46.207031 41 44 C 41 41.792969 39.207031 40 37 40 Z M 37 41.8125 C 38.207031 41.8125 39.1875 42.792969 39.1875 44 C 39.1875 45.207031 38.207031 46.1875 37 46.1875 C 35.792969 46.1875 34.8125 45.207031 34.8125 44 C 34.8125 42.792969 35.792969 41.8125 37 41.8125 Z M 23 45 C 21.347656 45 20 46.347656 20 48 C 20 49.652344 21.347656 51 23 51 C 24.652344 51 26 49.652344 26 48 C 26 46.347656 24.652344 45 23 45 Z M 23 46.8125 C 23.65625 46.8125 24.1875 47.34375 24.1875 48 C 24.1875 48.65625 23.65625 49.1875 23 49.1875 C 22.34375 49.1875 21.8125 48.65625 21.8125 48 C 21.8125 47.34375 22.34375 46.8125 23 46.8125 Z M 7 54 C 6.449219 54 6 54.449219 6 55 L 6 57 C 6 57.550781 6.449219 58 7 58 C 7.550781 58 8 57.550781 8 57 L 8 55 C 8 54.449219 7.550781 54 7 54 Z M 12 54 C 11.449219 54 11 54.449219 11 55 L 11 57 C 11 57.550781 11.449219 58 12 58 C 12.550781 58 13 57.550781 13 57 L 13 55 C 13 54.449219 12.550781 54 12 54 Z M 17 54 C 16.449219 54 16 54.449219 16 55 L 16 57 C 16 57.550781 16.449219 58 17 58 C 17.550781 58 18 57.550781 18 57 L 18 55 C 18 54.449219 17.550781 54 17 54 Z M 22 54 C 21.449219 54 21 54.449219 21 55 L 21 57 C 21 57.550781 21.449219 58 22 58 C 22.550781 58 23 57.550781 23 57 L 23 55 C 23 54.449219 22.550781 54 22 54 Z M 27 54 C 26.449219 54 26 54.449219 26 55 L 26 57 C 26 57.550781 26.449219 58 27 58 C 27.550781 58 28 57.550781 28 57 L 28 55 C 28 54.449219 27.550781 54 27 54 Z M 32 54 C 31.449219 54 31 54.449219 31 55 L 31 57 C 31 57.550781 31.449219 58 32 58 C 32.550781 58 33 57.550781 33 57 L 33 55 C 33 54.449219 32.550781 54 32 54 Z M 37 54 C 36.449219 54 36 54.449219 36 55 L 36 57 C 36 57.550781 36.449219 58 37 58 C 37.550781 58 38 57.550781 38 57 L 38 55 C 38 54.449219 37.550781 54 37 54 Z M 42 54 C 41.449219 54 41 54.449219 41 55 L 41 57 C 41 57.550781 41.449219 58 42 58 C 42.550781 58 43 57.550781 43 57 L 43 55 C 43 54.449219 42.550781 54 42 54 Z M 47 54 C 46.449219 54 46 54.449219 46 55 L 46 57 C 46 57.550781 46.449219 58 47 58 C 47.550781 58 48 57.550781 48 57 L 48 55 C 48 54.449219 47.550781 54 47 54 Z M 52 54 C 51.449219 54 51 54.449219 51 55 L 51 57 C 51 57.550781 51.449219 58 52 58 C 52.550781 58 53 57.550781 53 57 L 53 55 C 53 54.449219 52.550781 54 52 54 Z M 57 54 C 56.449219 54 56 54.449219 56 55 L 56 57 C 56 57.550781 56.449219 58 57 58 C 57.550781 58 58 57.550781 58 57 L 58 55 C 58 54.449219 57.550781 54 57 54 Z "></path>
</g>
</svg>
