<svg xmlns="http://www.w3.org/2000/svg" xmlns:xlink="http://www.w3.org/1999/xlink" viewBox="0 0 64 64" version="1.1" class="custom-svg">
<g id="surface1">
<path style=" " d="M 32 1.554688 C 31.339844 1.554688 30.679688 1.777344 30.125 2.21875 L 27.882813 4.015625 C 23.769531 7.304688 18.832031 9.414063 13.609375 10.109375 L 8.828125 10.75 C 7.28125 10.957031 6.144531 12.339844 6.234375 13.898438 L 7.210938 30.535156 C 7.730469 39.414063 12.046875 47.652344 19.050781 53.136719 L 28.917969 60.859375 C 29.824219 61.566406 30.910156 61.921875 32 61.921875 C 33.085938 61.921875 34.171875 61.566406 35.078125 60.859375 L 44.949219 53.136719 C 51.953125 47.652344 56.269531 39.414063 56.789063 30.535156 L 57.765625 13.902344 C 57.855469 12.339844 56.714844 10.957031 55.167969 10.75 L 50.390625 10.109375 C 45.167969 9.414063 40.230469 7.304688 36.117188 4.015625 L 33.875 2.21875 C 33.324219 1.777344 32.660156 1.558594 32 1.554688 Z M 32 3.5625 C 32.21875 3.5625 32.4375 3.632813 32.625 3.78125 L 34.863281 5.574219 C 39.265625 9.09375 44.542969 11.351563 50.125 12.09375 L 54.902344 12.734375 C 55.417969 12.800781 55.796875 13.261719 55.765625 13.78125 L 54.796875 30.421875 C 54.308594 38.726563 50.269531 46.433594 43.71875 51.5625 L 33.847656 59.28125 C 32.761719 60.132813 31.242188 60.136719 30.152344 59.28125 L 20.28125 51.5625 C 13.730469 46.429688 9.691406 38.726563 9.203125 30.421875 L 8.230469 13.78125 C 8.199219 13.261719 8.582031 12.800781 9.09375 12.734375 L 13.871094 12.09375 C 19.457031 11.351563 24.730469 9.09375 29.128906 5.574219 L 31.375 3.78125 C 31.558594 3.632813 31.777344 3.5625 32 3.5625 Z M 32 7.265625 C 31.570313 7.265625 31.132813 7.40625 30.769531 7.6875 L 29.328125 8.8125 C 24.9375 12.226563 19.6875 14.296875 14.148438 14.800781 L 12.996094 14.90625 C 11.917969 15.003906 11.121094 15.925781 11.179688 17.007813 L 11.96875 31.316406 C 12.324219 37.789063 15.414063 43.839844 20.445313 47.921875 L 30.109375 55.753906 C 30.65625 56.199219 31.328125 56.421875 32 56.421875 C 32.671875 56.421875 33.34375 56.199219 33.890625 55.753906 L 43.554688 47.921875 C 48.585938 43.839844 51.675781 37.785156 52.03125 31.316406 L 52.820313 17.007813 C 52.882813 15.925781 52.085938 15.003906 51.003906 14.90625 L 49.851563 14.796875 C 44.3125 14.296875 39.0625 12.222656 34.671875 8.808594 L 33.230469 7.6875 C 32.867188 7.40625 32.433594 7.265625 32 7.265625 Z M 32 9.265625 L 33.441406 10.390625 C 38.136719 14.039063 43.746094 16.253906 49.671875 16.792969 L 50.824219 16.894531 L 50.035156 31.207031 C 49.863281 34.367188 48.96875 37.414063 47.476563 40.140625 C 47.332031 40.058594 47.175781 40 47 40 C 46.445313 40 46 40.449219 46 41 L 46 42 C 46 42.132813 46.027344 42.253906 46.074219 42.371094 C 45.003906 43.847656 43.738281 45.195313 42.296875 46.363281 L 32.628906 54.203125 C 32.265625 54.496094 31.734375 54.496094 31.371094 54.203125 L 21.703125 46.363281 C 20.261719 45.195313 18.996094 43.847656 17.921875 42.371094 C 17.972656 42.253906 18 42.132813 18 42 L 18 41 C 18 40.449219 17.554688 40 17 40 C 16.824219 40 16.667969 40.058594 16.523438 40.140625 C 15.03125 37.414063 14.136719 34.367188 13.964844 31.207031 L 13.175781 16.894531 L 14.328125 16.792969 C 20.253906 16.253906 25.863281 14.039063 30.558594 10.390625 Z M 32 13.421875 C 31.597656 13.421875 31.195313 13.539063 30.855469 13.78125 L 28.28125 15.578125 C 25.671875 17.410156 22.789063 18.789063 19.722656 19.675781 C 19.195313 19.832031 18.890625 20.386719 19.042969 20.917969 C 19.167969 21.355469 19.570313 21.640625 20.003906 21.640625 C 20.097656 21.640625 20.1875 21.625 20.28125 21.597656 C 23.558594 20.648438 26.632813 19.175781 29.425781 17.21875 L 32 15.421875 L 34.566406 17.21875 C 35.722656 18.027344 36.9375 18.761719 38.1875 19.402344 C 38.683594 19.65625 39.285156 19.460938 39.535156 18.96875 C 39.789063 18.480469 39.59375 17.875 39.105469 17.625 C 37.933594 17.023438 36.792969 16.335938 35.714844 15.578125 L 33.144531 13.78125 C 32.800781 13.542969 32.398438 13.421875 32 13.421875 Z M 42.132813 19.050781 C 41.742188 19.074219 41.386719 19.320313 41.246094 19.714844 C 41.058594 20.234375 41.328125 20.804688 41.847656 20.992188 C 42.445313 21.207031 43.042969 21.402344 43.648438 21.578125 C 43.742188 21.605469 43.835938 21.621094 43.929688 21.621094 C 44.363281 21.621094 44.761719 21.335938 44.890625 20.898438 C 45.042969 20.367188 44.738281 19.8125 44.207031 19.65625 C 43.644531 19.492188 43.082031 19.308594 42.527344 19.109375 C 42.398438 19.0625 42.261719 19.046875 42.132813 19.050781 Z M 22 40 C 21.445313 40 21 40.449219 21 41 L 21 43 C 21 43.550781 21.445313 44 22 44 C 22.554688 44 23 43.550781 23 43 L 23 41 C 23 40.449219 22.554688 40 22 40 Z M 27 40 C 26.445313 40 26 40.449219 26 41 L 26 43 C 26 43.550781 26.445313 44 27 44 C 27.554688 44 28 43.550781 28 43 L 28 41 C 28 40.449219 27.554688 40 27 40 Z M 32 40 C 31.445313 40 31 40.449219 31 41 L 31 43 C 31 43.550781 31.445313 44 32 44 C 32.554688 44 33 43.550781 33 43 L 33 41 C 33 40.449219 32.554688 40 32 40 Z M 37 40 C 36.445313 40 36 40.449219 36 41 L 36 43 C 36 43.550781 36.445313 44 37 44 C 37.554688 44 38 43.550781 38 43 L 38 41 C 38 40.449219 37.554688 40 37 40 Z M 42 40 C 41.445313 40 41 40.449219 41 41 L 41 43 C 41 43.550781 41.445313 44 42 44 C 42.554688 44 43 43.550781 43 43 L 43 41 C 43 40.449219 42.554688 40 42 40 Z "></path>
</g>
</svg> 
