<svg xmlns="http://www.w3.org/2000/svg" xmlns:xlink="http://www.w3.org/1999/xlink" viewBox="0 0 64 64" version="1.1" class="custom-svg">
    <path d="M 9 2 C 7.346 2 6 3.346 6 5 L 6 23 C 6 24.654 7.346 26 9 26 C 10.302 26 11.402406 25.161 11.816406 24 L 21 24 C 21.55 24 22 24.45 22 25 L 22 28.179688 C 20.84 28.589688 20 29.7 20 31 C 20 32.3 20.84 33.410313 22 33.820312 L 22 41 C 22 50.37 29.63 58 39 58 L 54.183594 58 C 54.597594 59.161 55.698 60 57 60 C 58.654 60 60 58.654 60 57 L 60 39 C 60 37.346 58.654 36 57 36 C 55.698 36 54.597594 36.839 54.183594 38 L 43 38 C 42.45 38 42 37.55 42 37 L 42 33.820312 C 43.16 33.410313 44 32.3 44 31 C 44 29.7 43.16 28.589688 42 28.179688 L 42 21 C 42 11.63 34.37 4 25 4 L 11.816406 4 C 11.402406 2.839 10.302 2 9 2 z M 9 4 C 9.552 4 10 4.449 10 5 L 10 23 C 10 23.551 9.552 24 9 24 C 8.448 24 8 23.551 8 23 L 8 5 C 8 4.449 8.448 4 9 4 z M 12 6 L 25 6 C 33.27 6 40 12.73 40 21 L 40 28 L 24 28 L 24 25 C 24 23.35 22.65 22 21 22 L 12 22 L 12 6 z M 15 8 C 14.447 8 14 8.448 14 9 C 14 9.552 14.447 10 15 10 L 17 10 C 17.553 10 18 9.552 18 9 C 18 8.448 17.553 8 17 8 L 15 8 z M 29.267578 8.7929688 C 28.878328 8.805625 28.515687 9.0485469 28.367188 9.4355469 C 28.169187 9.9515469 28.426406 10.528563 28.941406 10.726562 C 29.699406 11.017563 30.426469 11.395609 31.105469 11.849609 C 31.276469 11.963609 31.469156 12.017578 31.660156 12.017578 C 31.983156 12.017578 32.300187 11.860266 32.492188 11.572266 C 32.800187 11.113266 32.67775 10.492547 32.21875 10.185547 C 31.41675 9.6495469 30.555203 9.204375 29.658203 8.859375 C 29.529703 8.809375 29.397328 8.78875 29.267578 8.7929688 z M 34.548828 12.583984 C 34.294828 12.553984 34.028047 12.622469 33.810547 12.792969 C 33.376547 13.134969 33.302531 13.761313 33.644531 14.195312 C 35.185531 16.151313 36 18.504 36 21 C 36 21.552 36.447 22 37 22 C 37.553 22 38 21.552 38 21 C 38 18.051 37.036844 15.270031 35.214844 12.957031 C 35.044344 12.740531 34.802828 12.613984 34.548828 12.583984 z M 15 13 C 14.447 13 14 13.448 14 14 C 14 14.552 14.447 15 15 15 L 17 15 C 17.553 15 18 14.552 18 14 C 18 13.448 17.553 13 17 13 L 15 13 z M 15 18 C 14.447 18 14 18.448 14 19 C 14 19.552 14.447 20 15 20 L 17 20 C 17.553 20 18 19.552 18 19 C 18 18.448 17.553 18 17 18 L 15 18 z M 23 30 L 24 30 L 40 30 L 41 30 C 41.55 30 42 30.45 42 31 C 42 31.55 41.55 32 41 32 L 40 32 L 24 32 L 23 32 C 22.45 32 22 31.55 22 31 C 22 30.45 22.45 30 23 30 z M 24 34 L 40 34 L 40 37 C 40 38.65 41.35 40 43 40 L 54 40 L 54 56 L 39 56 C 30.73 56 24 49.27 24 41 L 24 34 z M 57 38 C 57.552 38 58 38.449 58 39 L 58 57 C 58 57.551 57.552 58 57 58 C 56.448 58 56 57.551 56 57 L 56 39 C 56 38.449 56.448 38 57 38 z M 49 42 C 48.447 42 48 42.448 48 43 C 48 43.552 48.447 44 49 44 L 51 44 C 51.553 44 52 43.552 52 43 C 52 42.448 51.553 42 51 42 L 49 42 z M 49 47 C 48.447 47 48 47.448 48 48 C 48 48.552 48.447 49 49 49 L 51 49 C 51.553 49 52 48.552 52 48 C 52 47.448 51.553 47 51 47 L 49 47 z M 49 52 C 48.447 52 48 52.448 48 53 C 48 53.552 48.447 54 49 54 L 51 54 C 51.553 54 52 53.552 52 53 C 52 52.448 51.553 52 51 52 L 49 52 z"></path>
</svg> 
