<svg xmlns="http://www.w3.org/2000/svg" viewBox="0 0 64 64">
    <path d="M 9 0 C 8.45 0 8 0.45 8 1 L 8 18 L 7 18 C 4.24 18 2 20.24 2 23 C 2 25.76 4.24 28 7 28 L 15 28 C 13.795 28.332 12.834375 29.455969 12.484375 31.167969 C 12.181375 32.646969 12.281625 34.457625 12.765625 36.265625 C 13.619625 39.455625 15.413781 41.7995 17.300781 42.3125 C 20.424781 52.1545 28.339953 61.914062 37.751953 61.914062 C 47.164953 61.914062 55.079125 52.1545 58.203125 42.3125 C 60.090125 41.7995 61.885234 39.456625 62.740234 36.265625 C 63.224234 34.458625 63.324484 32.647969 63.021484 31.167969 C 62.668484 29.445969 61.805844 28.317187 60.589844 27.992188 C 60.211844 27.891188 59.672484 27.853453 59.021484 28.064453 C 58.967484 25.704453 58.633 23.691469 58 21.980469 C 57.75 21.310469 57.830312 21.070312 57.820312 21.070312 C 58.110312 20.840312 59.570703 21.039141 60.970703 21.619141 C 61.310703 21.759141 61.710234 21.700938 61.990234 21.460938 C 62.280234 21.220938 62.410078 20.850469 62.330078 20.480469 C 59.800078 8.9104687 51.209375 2 39.359375 2 L 37.75 2 C 36.06 2 34.01 2.2595313 32 2.7695312 L 32 1 C 32 0.45 31.55 0 31 0 L 9 0 z M 10 2 L 30 2 L 30 23 C 30 24.65 28.65 26 27 26 C 25.35 26 24 24.65 24 23 C 24 21.35 25.35 20 27 20 C 27.55 20 28 19.55 28 19 C 28 18.45 27.55 18 27 18 L 10 18 L 10 2 z M 37.75 4 L 39.359375 4 C 49.769375 4 57.179453 9.5094531 59.939453 19.189453 C 58.739453 18.909453 57.289453 18.809141 56.439453 19.619141 C 55.739453 20.299141 55.630859 21.319922 56.130859 22.669922 C 56.910859 24.789922 57.180937 27.469375 56.960938 30.859375 C 56.920938 31.419375 57.340625 31.889688 57.890625 31.929688 L 57.960938 31.929688 C 58.480938 31.929688 58.920937 31.520234 58.960938 30.990234 C 58.976937 30.742234 58.981188 30.506625 58.992188 30.265625 C 59.048187 30.242625 59.108156 30.231266 59.160156 30.197266 C 59.417156 30.031266 59.785266 29.846781 60.072266 29.925781 C 60.504266 30.041781 60.873547 30.654359 61.060547 31.568359 C 61.299547 32.732359 61.207594 34.257047 60.808594 35.748047 C 59.992594 38.795047 58.325547 40.417969 57.435547 40.417969 L 57.433594 40.417969 C 56.991594 40.417969 56.599609 40.708812 56.474609 41.132812 C 53.701609 50.466812 46.380906 59.914062 37.753906 59.914062 C 29.126906 59.914062 21.80525 50.466813 19.03125 41.132812 C 18.90525 40.708813 18.514266 40.417969 18.072266 40.417969 L 18.070312 40.417969 L 18.068359 40.417969 C 17.178359 40.417969 15.511312 38.795047 14.695312 35.748047 C 14.296312 34.257047 14.203406 32.733359 14.441406 31.568359 C 14.628406 30.655359 14.999641 30.040828 15.431641 29.923828 C 15.718641 29.844828 16.084797 30.030266 16.341797 30.197266 C 16.344797 30.199266 16.350516 30.199172 16.353516 30.201172 C 16.352516 30.462172 16.347844 30.700906 16.339844 30.878906 C 16.319844 31.428906 16.739063 31.897734 17.289062 31.927734 C 17.829062 31.967734 18.309844 31.528516 18.339844 30.978516 C 18.369844 30.328516 18.358828 29.108047 18.298828 27.998047 L 27 27.998047 C 29.76 27.998047 32 25.758047 32 22.998047 L 32 19.748047 C 36.01 21.418047 40.190937 22.257813 44.460938 22.257812 C 45.020938 22.257812 45.460938 21.807813 45.460938 21.257812 C 45.460938 20.707812 45.020938 20.257812 44.460938 20.257812 C 40.180937 20.257812 35.99 19.358359 32 17.568359 L 32 4.8398438 C 33.99 4.2898438 36.09 4 37.75 4 z M 21 6 C 20.448 6 20 6.447 20 7 C 20 7.553 20.448 8 21 8 L 22.585938 8 L 19 11.585938 L 16.707031 9.2929688 C 16.316031 8.9019687 15.683969 8.9019687 15.292969 9.2929688 L 12.292969 12.292969 C 11.901969 12.683969 11.901969 13.316031 12.292969 13.707031 C 12.683969 14.098031 13.316031 14.098031 13.707031 13.707031 L 16 11.414062 L 18.292969 13.707031 C 18.487969 13.902031 18.744 14 19 14 C 19.256 14 19.512031 13.902031 19.707031 13.707031 L 24 9.4140625 L 24 11 C 24 11.553 24.448 12 25 12 C 25.552 12 26 11.553 26 11 L 26 7 C 26 6.447 25.552 6 25 6 L 21 6 z M 37.554688 6.0039062 C 37.003687 6.0479062 36.592719 6.5290781 36.636719 7.0800781 L 36.792969 9.0136719 C 36.834969 9.5366719 37.270109 9.9335938 37.787109 9.9335938 C 37.814109 9.9335938 37.842141 9.9316875 37.869141 9.9296875 C 38.420141 9.8856875 38.829156 9.4045156 38.785156 8.8535156 L 38.630859 6.9199219 C 38.586859 6.3689219 38.089688 5.9639062 37.554688 6.0039062 z M 43.167969 6.2714844 C 42.617969 6.1854844 42.107531 6.5536563 42.019531 7.0976562 L 41.707031 9.0078125 C 41.618031 9.5528125 41.98625 10.065297 42.53125 10.154297 C 42.58625 10.163297 42.641312 10.167969 42.695312 10.167969 C 43.176313 10.167969 43.601641 9.818125 43.681641 9.328125 L 43.992188 7.4199219 C 44.081188 6.8759219 43.712969 6.3614844 43.167969 6.2714844 z M 48.140625 8.0136719 C 47.751 8.0105781 47.378344 8.2369375 47.214844 8.6171875 L 46.457031 10.375 C 46.238031 10.884 46.471516 11.471453 46.978516 11.689453 C 47.107516 11.745453 47.242 11.771484 47.375 11.771484 C 47.762 11.771484 48.130969 11.545969 48.292969 11.167969 L 49.050781 9.4101562 C 49.269781 8.9021563 49.036297 8.3137031 48.529297 8.0957031 C 48.402797 8.0409531 48.2705 8.0147031 48.140625 8.0136719 z M 52.541016 11.15625 C 52.287016 11.18825 52.046453 11.317156 51.876953 11.535156 L 50.724609 13.019531 C 50.386609 13.456531 50.464391 14.084828 50.900391 14.423828 C 51.082391 14.565828 51.299672 14.632812 51.513672 14.632812 C 51.811672 14.632812 52.107687 14.500094 52.304688 14.246094 L 53.455078 12.761719 C 53.793078 12.324719 53.715297 11.696422 53.279297 11.357422 C 53.061797 11.188422 52.795016 11.12425 52.541016 11.15625 z M 7 20 L 23 20 C 22.37 20.84 22 21.88 22 23 C 22 24.12 22.37 25.16 23 26 L 7 26 C 5.35 26 4 24.65 4 23 C 4 21.35 5.35 20 7 20 z M 48.759766 20.261719 C 48.207766 20.261719 47.759766 20.708719 47.759766 21.261719 C 47.759766 21.814719 48.207766 22.261719 48.759766 22.261719 L 51.982422 22.261719 C 52.534422 22.261719 52.982422 21.814719 52.982422 21.261719 C 52.982422 20.708719 52.534422 20.261719 51.982422 20.261719 L 48.759766 20.261719 z M 16.279297 28 L 16.289062 28 L 16.289062 28.001953 C 16.285062 28.001953 16.283297 28.001 16.279297 28 z M 29 30 A 2 2 0 0 0 27 32 A 2 2 0 0 0 29 34 A 2 2 0 0 0 31 32 A 2 2 0 0 0 29 30 z M 48 30 A 2 2 0 0 0 46 32 A 2 2 0 0 0 48 34 A 2 2 0 0 0 50 32 A 2 2 0 0 0 48 30 z"></path>
</svg> 
